<svg xmlns="http://www.w3.org/2000/svg" viewBox="0 0 1920 1080" width="1920" height="1080">
<defs><linearGradient id="g474" gradientTransform="rotate(191)"><stop offset="0%" stop-color="#0EA5E9" stop-opacity="0.08"/><stop offset="100%" stop-color="#1E293B" stop-opacity="0.15"/></linearGradient></defs>
<rect width="1920" height="1080" fill="#F8FAFC"/>
<rect width="1920" height="1080" fill="url(#g474)"/>
<circle cx="85.31073697405937" cy="842.3835084982063" r="36.26882878715995" fill="#16A34A" opacity="0.21615411691940772"/><circle cx="654.3648207321436" cy="84.12297167267928" r="29.984644176424148" fill="#0284C7" opacity="0.3217055373095959"/><circle cx="1311.783520608939" cy="959.4200443843566" r="62.42125269251061" fill="#0EA5E9" opacity="0.10806955016038339"/><circle cx="159.56371322233576" cy="825.37982179353" r="67.30865751142488" fill="#16A34A" opacity="0.15510854409552044"/><circle cx="699.5361915785226" cy="531.4395440103855" r="42.54966484620205" fill="#1E293B" opacity="0.24945384915867247"/><circle cx="1733.4015233567" cy="629.6650402896712" r="89.65449429084966" fill="#1E293B" opacity="0.32551622290677973"/><circle cx="327.4174532363354" cy="104.14631611122407" r="78.30685322946576" fill="#1E293B" opacity="0.12719973458647704"/><circle cx="1574.0245115515072" cy="489.3571988021556" r="51.58851037881199" fill="#22C55E" opacity="0.1793572737643097"/><circle cx="1649.2920548182838" cy="344.0066900327864" r="55.588528956834715" fill="#0284C7" opacity="0.1917526910470358"/><circle cx="559.8723664133552" cy="998.3660366557222" r="68.73916380921301" fill="#1E293B" opacity="0.38939205374512076"/><circle cx="1358.3832142487013" cy="870.0110286567462" r="31.508168663371514" fill="#0284C7" opacity="0.16648423314698435"/><circle cx="1283.2533049613733" cy="156.54457600465472" r="32.199713859893116" fill="#0EA5E9" opacity="0.17207634418464857"/>
<g transform="translate(798,378)"><path d="M162,48.6 L275.4,113.39999999999999 L275.4,210.6 L162,275.4 L48.6,210.6 L48.6,113.39999999999999 Z" fill="none" stroke="#22C55E" stroke-width="2" opacity="0.4"/><path d="M129.6,178.20000000000002 L155.51999999999998,204.12 L200.88,136.07999999999998" stroke="#22C55E" stroke-width="2.5" stroke-linecap="round" fill="none" opacity="0.5"/></g>
</svg>