<svg xmlns="http://www.w3.org/2000/svg" viewBox="0 0 1200 800" width="1200" height="800">
<defs><linearGradient id="g471" gradientTransform="rotate(336)"><stop offset="0%" stop-color="#16A34A" stop-opacity="0.08"/><stop offset="100%" stop-color="#0EA5E9" stop-opacity="0.15"/></linearGradient></defs>
<rect width="1200" height="800" fill="#0F172A"/>
<rect width="1200" height="800" fill="url(#g471)"/>
<circle cx="288.42478533128724" cy="503.5827980410147" r="71.60889950730734" fill="#22C55E" opacity="0.18503921743020343"/><circle cx="216.51612670767693" cy="391.0328484988146" r="28.908791997385016" fill="#0284C7" opacity="0.2766314516092012"/><circle cx="579.2326452017135" cy="508.7151755659982" r="57.595801723744536" fill="#1E293B" opacity="0.1706767049344971"/><circle cx="653.5265151909799" cy="146.76339416463244" r="45.23708371933278" fill="#16A34A" opacity="0.3807091230346906"/><circle cx="312.9239796781204" cy="608.888928414219" r="99.62213534826611" fill="#0284C7" opacity="0.20673578680188937"/><circle cx="833.4811674742784" cy="478.6564056562785" r="97.82123800164203" fill="#22C55E" opacity="0.3335825759298937"/><circle cx="89.41669360680197" cy="284.2520939970874" r="82.49478454002625" fill="#22C55E" opacity="0.34917948320431585"/><circle cx="1038.2984506322987" cy="188.04069476950977" r="59.99617803841473" fill="#0284C7" opacity="0.23391830370195052"/><circle cx="659.7264737447039" cy="15.232303380251214" r="20.932905339573423" fill="#16A34A" opacity="0.2443365347984587"/><circle cx="256.5663034623175" cy="339.91311633951324" r="31.974991869158103" fill="#0284C7" opacity="0.1711047621640421"/><circle cx="630.9579296325874" cy="73.28519194692856" r="70.42267394291486" fill="#0EA5E9" opacity="0.1793545861070553"/><circle cx="850.1217123587817" cy="530.4149014227231" r="48.32503213391177" fill="#0284C7" opacity="0.21908851924267458"/>
<g transform="translate(480,280)"><path d="M120,36 L204,84 L204,156 L120,204 L36,156 L36,84 Z" fill="none" stroke="#0EA5E9" stroke-width="2" opacity="0.4"/><path d="M96,132 L115.19999999999999,151.2 L148.8,100.8" stroke="#0EA5E9" stroke-width="2.5" stroke-linecap="round" fill="none" opacity="0.5"/></g>
</svg>