<svg xmlns="http://www.w3.org/2000/svg" viewBox="0 0 1080 1080" width="1080" height="1080">
<defs><linearGradient id="g468" gradientTransform="rotate(120)"><stop offset="0%" stop-color="#0284C7" stop-opacity="0.08"/><stop offset="100%" stop-color="#0284C7" stop-opacity="0.15"/></linearGradient></defs>
<rect width="1080" height="1080" fill="#0F172A"/>
<rect width="1080" height="1080" fill="url(#g468)"/>
<circle cx="471.1773240484086" cy="517.2900462125335" r="26.94897019020186" fill="#16A34A" opacity="0.15392431794099912"/><circle cx="21.64881641198771" cy="971.6657192741202" r="27.832939818345885" fill="#0284C7" opacity="0.23155736590880655"/><circle cx="304.7405310205561" cy="414.1109296438386" r="52.770350754978466" fill="#0284C7" opacity="0.2332838597086108"/><circle cx="6.593138153285849" cy="650.8813429538918" r="23.165509927240674" fill="#0EA5E9" opacity="0.3063097018341624"/><circle cx="169.7740556576979" cy="32.56056220509164" r="76.69460581307729" fill="#16A34A" opacity="0.1640177244451062"/><circle cx="525.2277445655575" cy="662.7072549822807" r="25.987981675181523" fill="#0EA5E9" opacity="0.3416489289530077"/><circle cx="1056.777731549719" cy="663.334337680912" r="86.68271585058675" fill="#22C55E" opacity="0.2711592316824563"/><circle cx="983.5484233904149" cy="18.35267707552079" r="68.40384569801748" fill="#0EA5E9" opacity="0.28847933363959133"/><circle cx="259.7808719051824" cy="777.1205295968061" r="66.27728175956503" fill="#22C55E" opacity="0.2969203785498816"/><circle cx="146.8911401246592" cy="999.3993779638776" r="75.2108199663561" fill="#0EA5E9" opacity="0.2528174707226618"/><circle cx="371.6337153237627" cy="407.85899010287505" r="29.337179185205308" fill="#0284C7" opacity="0.19222493906712618"/><circle cx="808.3890982050348" cy="195.57565733378348" r="64.45035040793042" fill="#1E293B" opacity="0.2661006943007006"/>
<g transform="translate(378,378)"><path d="M162,48.6 L275.4,113.39999999999999 L275.4,210.6 L162,275.4 L48.6,210.6 L48.6,113.39999999999999 Z" fill="none" stroke="#0EA5E9" stroke-width="2" opacity="0.4"/><path d="M129.6,178.20000000000002 L155.51999999999998,204.12 L200.88,136.07999999999998" stroke="#0EA5E9" stroke-width="2.5" stroke-linecap="round" fill="none" opacity="0.5"/></g>
</svg>