<svg xmlns="http://www.w3.org/2000/svg" viewBox="0 0 800 1200" width="800" height="1200">
<defs><linearGradient id="g290" gradientTransform="rotate(180)"><stop offset="0%" stop-color="#8B5CF6" stop-opacity="0.08"/><stop offset="100%" stop-color="#8B5CF6" stop-opacity="0.15"/></linearGradient></defs>
<rect width="800" height="1200" fill="#F8FAFC"/>
<rect width="800" height="1200" fill="url(#g290)"/>
<circle cx="48.75185792218136" cy="258.722966032776" r="70.45983196279019" fill="#1E293B" opacity="0.1077736157530673"/><circle cx="403.0993301450269" cy="735.6672804203511" r="70.66571057836126" fill="#0EA5E9" opacity="0.15716161556277575"/><circle cx="307.39910407680935" cy="85.11911079764283" r="33.126926732367764" fill="#1E293B" opacity="0.34797504129630985"/><circle cx="310.71859776109324" cy="971.2145998805897" r="73.58546556307512" fill="#A78BFA" opacity="0.29194404598506546"/><circle cx="276.21791090464023" cy="1191.6490103971669" r="22.994520667003954" fill="#8B5CF6" opacity="0.329412692533259"/><circle cx="370.9972236035366" cy="225.51069280645874" r="57.21477497109657" fill="#0EA5E9" opacity="0.22025254137837566"/><circle cx="758.5716083259989" cy="769.5321887447799" r="95.16664016541712" fill="#22C55E" opacity="0.24195764352749813"/><circle cx="752.309342801859" cy="94.68726561841301" r="33.92545991942795" fill="#22C55E" opacity="0.12576710835636323"/><circle cx="447.4461108887998" cy="340.1827005112383" r="63.37694809155255" fill="#1E293B" opacity="0.3168951063574246"/><circle cx="149.4751987508267" cy="344.505744189495" r="27.20328584984251" fill="#0EA5E9" opacity="0.30110484296558876"/><circle cx="450.92399087820576" cy="419.27613263882336" r="44.931158036860786" fill="#A78BFA" opacity="0.2558658810387048"/><circle cx="100.96998782918787" cy="303.88637362409975" r="34.552567540251246" fill="#0EA5E9" opacity="0.35548974648629295"/>
<g transform="translate(280,480)"><circle cx="120" cy="120" r="28.799999999999997" fill="#0EA5E9" opacity="0.5"/><path d="M120,60 A60,60 0 0 1 180,120" fill="none" stroke="#0EA5E9" stroke-width="2" opacity="0.3"/><path d="M120,36 A84,84 0 0 1 204,120" fill="none" stroke="#0EA5E9" stroke-width="2" opacity="0.2"/></g>
</svg>