<svg xmlns="http://www.w3.org/2000/svg" viewBox="0 0 1920 1080" width="1920" height="1080">
<defs><linearGradient id="g284" gradientTransform="rotate(110)"><stop offset="0%" stop-color="#22C55E" stop-opacity="0.08"/><stop offset="100%" stop-color="#0EA5E9" stop-opacity="0.15"/></linearGradient></defs>
<rect width="1920" height="1080" fill="#F8FAFC"/>
<rect width="1920" height="1080" fill="url(#g284)"/>
<circle cx="869.3422981252356" cy="987.7572076467399" r="61.1399733658321" fill="#1E293B" opacity="0.3455438169143571"/><circle cx="351.56035634834353" cy="469.6432994768427" r="68.514006220283" fill="#8B5CF6" opacity="0.3670134443016848"/><circle cx="1887.7352741060174" cy="611.2980854802747" r="23.47602479483562" fill="#0EA5E9" opacity="0.17318935070483885"/><circle cx="597.8820558990185" cy="699.5946610528925" r="29.44231797889091" fill="#A78BFA" opacity="0.14314520358400903"/><circle cx="265.207337984077" cy="573.6051275521564" r="57.13946163387919" fill="#22C55E" opacity="0.2439765678196927"/><circle cx="90.73002585277895" cy="236.00183821842245" r="73.54826239268134" fill="#1E293B" opacity="0.23638524742460368"/><circle cx="1451.8703730514928" cy="171.76699093707558" r="23.542502749285198" fill="#0EA5E9" opacity="0.3859171406234774"/><circle cx="60.04844075073343" cy="694.2140178328511" r="50.74079523863345" fill="#0EA5E9" opacity="0.23488916823164482"/><circle cx="1806.4112733736738" cy="739.2782700241341" r="74.06570089428286" fill="#22C55E" opacity="0.12206279372057206"/><circle cx="60.00791525468967" cy="311.0885110787009" r="33.6749420069856" fill="#1E293B" opacity="0.16453025994312975"/><circle cx="384.51652443457067" cy="995.196481323984" r="42.76016855869457" fill="#A78BFA" opacity="0.2816065869588466"/><circle cx="396.21084041540587" cy="312.52881759081856" r="66.80320408828855" fill="#A78BFA" opacity="0.1495140964626466"/>
<g transform="translate(798,378)"><circle cx="162" cy="162" r="38.879999999999995" fill="#0EA5E9" opacity="0.5"/><path d="M162,81 A81,81 0 0 1 243,162" fill="none" stroke="#0EA5E9" stroke-width="2" opacity="0.3"/><path d="M162,48.6 A113.39999999999999,113.39999999999999 0 0 1 275.4,162" fill="none" stroke="#0EA5E9" stroke-width="2" opacity="0.2"/></g>
</svg>