<svg xmlns="http://www.w3.org/2000/svg" viewBox="0 0 800 1200" width="800" height="1200">
<defs><linearGradient id="g300" gradientTransform="rotate(298)"><stop offset="0%" stop-color="#A78BFA" stop-opacity="0.08"/><stop offset="100%" stop-color="#22C55E" stop-opacity="0.15"/></linearGradient></defs>
<rect width="800" height="1200" fill="#0F172A"/>
<rect width="800" height="1200" fill="url(#g300)"/>
<circle cx="326.29502557804346" cy="60.74789581890022" r="85.99292962438699" fill="#0EA5E9" opacity="0.21148994738374832"/><circle cx="30.792410327859603" cy="1092.0696006082646" r="47.5852178294074" fill="#0EA5E9" opacity="0.10740856780429238"/><circle cx="42.13700410177652" cy="294.9508043890361" r="22.545096615837046" fill="#A78BFA" opacity="0.1392845253825975"/><circle cx="680.0537220016622" cy="94.3599305063113" r="67.15737816612923" fill="#8B5CF6" opacity="0.33994211656036055"/><circle cx="285.74266646592196" cy="115.49897577194402" r="72.7529524385491" fill="#A78BFA" opacity="0.17180623358283773"/><circle cx="659.6523004208248" cy="564.3214065249277" r="83.32562929329056" fill="#1E293B" opacity="0.1933646979679956"/><circle cx="481.2809740018854" cy="133.99881565384456" r="81.20686913021548" fill="#A78BFA" opacity="0.1020251484140988"/><circle cx="364.4579406496677" cy="966.9178614084775" r="59.233234412254056" fill="#22C55E" opacity="0.3438970087504918"/><circle cx="738.737356233166" cy="1138.1200353970007" r="45.562360087002034" fill="#0EA5E9" opacity="0.24161562723258104"/><circle cx="623.5950334217354" cy="1142.5921495469213" r="96.41719229185692" fill="#0EA5E9" opacity="0.3287291479098882"/><circle cx="135.43861111201215" cy="475.1132406993893" r="48.54947383380446" fill="#1E293B" opacity="0.31296470455170117"/>
<g transform="translate(280,480)"><circle cx="120" cy="120" r="28.799999999999997" fill="#8B5CF6" opacity="0.5"/><path d="M120,60 A60,60 0 0 1 180,120" fill="none" stroke="#8B5CF6" stroke-width="2" opacity="0.3"/><path d="M120,36 A84,84 0 0 1 204,120" fill="none" stroke="#8B5CF6" stroke-width="2" opacity="0.2"/></g>
</svg>