<svg xmlns="http://www.w3.org/2000/svg" viewBox="0 0 800 600" width="800" height="600">
<defs><linearGradient id="g287" gradientTransform="rotate(325)"><stop offset="0%" stop-color="#1E293B" stop-opacity="0.08"/><stop offset="100%" stop-color="#A78BFA" stop-opacity="0.15"/></linearGradient></defs>
<rect width="800" height="600" fill="#0F172A"/>
<rect width="800" height="600" fill="url(#g287)"/>
<circle cx="205.48890773718145" cy="39.05774349259003" r="25.79990264568469" fill="#22C55E" opacity="0.3766587164035614"/><circle cx="274.7914059784183" cy="14.373292042290133" r="69.58985839932213" fill="#0EA5E9" opacity="0.11208752986238109"/><circle cx="146.97773395756047" cy="491.0848015836298" r="28.301475763601694" fill="#8B5CF6" opacity="0.11058219593072516"/><circle cx="679.91806071244" cy="137.1355001229192" r="51.513891770983015" fill="#A78BFA" opacity="0.21754462478453723"/><circle cx="193.36048419900285" cy="157.24701011297014" r="80.06699116906802" fill="#0EA5E9" opacity="0.28669463017647584"/><circle cx="204.40070052109724" cy="121.93373937339871" r="65.38151868188895" fill="#8B5CF6" opacity="0.22831889440148967"/><circle cx="681.7587985487271" cy="540.0961003639699" r="99.35457147597761" fill="#22C55E" opacity="0.1639373920056386"/><circle cx="788.6647634102634" cy="516.5090437200936" r="42.3331275790307" fill="#1E293B" opacity="0.18032813829400401"/><circle cx="200.0587372109841" cy="590.4007502742119" r="28.721324474291247" fill="#0EA5E9" opacity="0.36947895010884757"/><circle cx="87.23924838680705" cy="472.5399114867113" r="70.43911394704051" fill="#A78BFA" opacity="0.3828175515242085"/><circle cx="305.5696046963051" cy="381.26250019414584" r="83.84566331640414" fill="#8B5CF6" opacity="0.26873623399877566"/><circle cx="133.0289190011368" cy="462.7851539876173" r="50.6778858142699" fill="#8B5CF6" opacity="0.10250192140462057"/>
<g transform="translate(310,210)"><circle cx="90" cy="90" r="21.599999999999998" fill="#8B5CF6" opacity="0.5"/><path d="M90,45 A45,45 0 0 1 135,90" fill="none" stroke="#8B5CF6" stroke-width="2" opacity="0.3"/><path d="M90,27 A62.99999999999999,62.99999999999999 0 0 1 153,90" fill="none" stroke="#8B5CF6" stroke-width="2" opacity="0.2"/></g>
</svg>