<svg xmlns="http://www.w3.org/2000/svg" viewBox="0 0 1200 800" width="1200" height="800">
<defs><linearGradient id="g306" gradientTransform="rotate(9)"><stop offset="0%" stop-color="#0EA5E9" stop-opacity="0.08"/><stop offset="100%" stop-color="#0EA5E9" stop-opacity="0.15"/></linearGradient></defs>
<rect width="1200" height="800" fill="#F8FAFC"/>
<rect width="1200" height="800" fill="url(#g306)"/>
<circle cx="19.231388922064927" cy="281.3085692760614" r="95.31278822134509" fill="#0EA5E9" opacity="0.2737197463621569"/><circle cx="431.112387991615" cy="70.60732810814616" r="49.73692218748566" fill="#0EA5E9" opacity="0.1975567392050817"/><circle cx="544.4696165104114" cy="600.5665471782596" r="32.19599855336919" fill="#0EA5E9" opacity="0.3140702159740685"/><circle cx="1112.4821947072467" cy="192.16475281134691" r="31.30052571306054" fill="#8B5CF6" opacity="0.18874095882171854"/><circle cx="677.1862798157952" cy="446.53930370373587" r="38.60801147167386" fill="#0EA5E9" opacity="0.25724235829640396"/><circle cx="289.26801931976155" cy="351.73855642950025" r="66.99214187170578" fill="#22C55E" opacity="0.17723199192176758"/><circle cx="952.3598903346433" cy="475.1191948308788" r="72.83100650909451" fill="#8B5CF6" opacity="0.2580656514578179"/><circle cx="437.6206491492881" cy="193.50414554914846" r="42.417899093048554" fill="#A78BFA" opacity="0.2347749488752102"/><circle cx="650.2681548244024" cy="437.92162392094883" r="34.87360728427173" fill="#A78BFA" opacity="0.1364479397297352"/><circle cx="1122.100401224662" cy="760.9626616919065" r="89.94553613471383" fill="#A78BFA" opacity="0.16530373079264885"/><circle cx="639.2210752137202" cy="659.0770038394975" r="50.72046331197066" fill="#1E293B" opacity="0.2872239986315593"/>
<g transform="translate(480,280)"><circle cx="120" cy="120" r="28.799999999999997" fill="#0EA5E9" opacity="0.5"/><path d="M120,60 A60,60 0 0 1 180,120" fill="none" stroke="#0EA5E9" stroke-width="2" opacity="0.3"/><path d="M120,36 A84,84 0 0 1 204,120" fill="none" stroke="#0EA5E9" stroke-width="2" opacity="0.2"/></g>
</svg>