<svg xmlns="http://www.w3.org/2000/svg" viewBox="0 0 1080 1080" width="1080" height="1080">
<defs><linearGradient id="g303" gradientTransform="rotate(154)"><stop offset="0%" stop-color="#1E293B" stop-opacity="0.08"/><stop offset="100%" stop-color="#1E293B" stop-opacity="0.15"/></linearGradient></defs>
<rect width="1080" height="1080" fill="#0F172A"/>
<rect width="1080" height="1080" fill="url(#g303)"/>
<circle cx="228.90326728010854" cy="217.21983737984655" r="50.65285890423959" fill="#A78BFA" opacity="0.2426048468729526"/><circle cx="214.785451567532" cy="539.0912667467177" r="48.66107000844653" fill="#0EA5E9" opacity="0.15248265350468704"/><circle cx="273.45380519838426" cy="538.1102813203914" r="27.37054758460312" fill="#22C55E" opacity="0.3766773707481822"/><circle cx="419.6532497179259" cy="712.1731771269564" r="89.22895195822134" fill="#8B5CF6" opacity="0.11434153762119034"/><circle cx="497.6101257816051" cy="893.3885693488536" r="95.68048197373793" fill="#22C55E" opacity="0.21452429593962086"/><circle cx="35.435911226492294" cy="491.3681585261302" r="75.15888558249816" fill="#8B5CF6" opacity="0.1852983449448816"/><circle cx="753.426608101862" cy="921.0049238065304" r="77.018937819655" fill="#1E293B" opacity="0.18004539993595836"/><circle cx="442.93840205570535" cy="25.728335628032998" r="50.825566752651305" fill="#8B5CF6" opacity="0.289335978812851"/><circle cx="251.26838487691094" cy="267.75111182383364" r="80.21798370426333" fill="#8B5CF6" opacity="0.18903178348115812"/><circle cx="925.8718281107692" cy="487.81626368669447" r="53.181364194658926" fill="#1E293B" opacity="0.24701643935126852"/><circle cx="379.0705463467823" cy="118.67793565492885" r="89.63496859151402" fill="#22C55E" opacity="0.3000943515916302"/>
<g transform="translate(378,378)"><circle cx="162" cy="162" r="38.879999999999995" fill="#8B5CF6" opacity="0.5"/><path d="M162,81 A81,81 0 0 1 243,162" fill="none" stroke="#8B5CF6" stroke-width="2" opacity="0.3"/><path d="M162,48.6 A113.39999999999999,113.39999999999999 0 0 1 275.4,162" fill="none" stroke="#8B5CF6" stroke-width="2" opacity="0.2"/></g>
</svg>