<svg xmlns="http://www.w3.org/2000/svg" viewBox="0 0 1920 1080" width="1920" height="1080">
<defs><linearGradient id="g309" gradientTransform="rotate(225)"><stop offset="0%" stop-color="#22C55E" stop-opacity="0.08"/><stop offset="100%" stop-color="#A78BFA" stop-opacity="0.15"/></linearGradient></defs>
<rect width="1920" height="1080" fill="#0F172A"/>
<rect width="1920" height="1080" fill="url(#g309)"/>
<circle cx="1574.6013036133734" cy="542.3132996655194" r="59.97271750119768" fill="#A78BFA" opacity="0.3048346458513612"/><circle cx="997.7188387864444" cy="731.548519648191" r="50.81277436652479" fill="#0EA5E9" opacity="0.24263082490547638"/><circle cx="1256.1626747028554" cy="3.4193955579953226" r="37.02144952213527" fill="#1E293B" opacity="0.25146306119995476"/><circle cx="893.8928004483624" cy="886.6716559665945" r="53.37209950515265" fill="#8B5CF6" opacity="0.26314038002224677"/><circle cx="1282.355871798802" cy="312.26755065123325" r="61.53554100686269" fill="#8B5CF6" opacity="0.2999604206531872"/><circle cx="862.6604863094728" cy="458.3259438335206" r="58.825398160913394" fill="#A78BFA" opacity="0.16916563889865358"/><circle cx="1708.1265680008817" cy="361.81690223684245" r="68.643075198534" fill="#0EA5E9" opacity="0.33608590297967744"/><circle cx="612.9400291786902" cy="496.73285735466783" r="34.0102314334458" fill="#0EA5E9" opacity="0.18021391893756938"/><circle cx="1634.1587445458013" cy="914.6372727627282" r="69.52923090153303" fill="#22C55E" opacity="0.38386409611801064"/><circle cx="24.72692193903674" cy="486.782922378539" r="46.70970803751583" fill="#0EA5E9" opacity="0.38359102237372755"/><circle cx="1371.6042471785138" cy="580.8299742088001" r="91.80595806968022" fill="#22C55E" opacity="0.27435364567148834"/><circle cx="1675.0322178704964" cy="689.8993123042391" r="39.092218521137" fill="#8B5CF6" opacity="0.35774597125849317"/>
<g transform="translate(798,378)"><circle cx="162" cy="162" r="38.879999999999995" fill="#8B5CF6" opacity="0.5"/><path d="M162,81 A81,81 0 0 1 243,162" fill="none" stroke="#8B5CF6" stroke-width="2" opacity="0.3"/><path d="M162,48.6 A113.39999999999999,113.39999999999999 0 0 1 275.4,162" fill="none" stroke="#8B5CF6" stroke-width="2" opacity="0.2"/></g>
</svg>