<svg xmlns="http://www.w3.org/2000/svg" viewBox="0 0 1200 800" width="1200" height="800">
<defs><linearGradient id="g281" gradientTransform="rotate(254)"><stop offset="0%" stop-color="#0EA5E9" stop-opacity="0.08"/><stop offset="100%" stop-color="#1E293B" stop-opacity="0.15"/></linearGradient></defs>
<rect width="1200" height="800" fill="#0F172A"/>
<rect width="1200" height="800" fill="url(#g281)"/>
<circle cx="778.4445110507725" cy="611.267019632521" r="96.4800440859795" fill="#22C55E" opacity="0.3144289174251528"/><circle cx="27.263336467801906" cy="676.6034616870838" r="67.43815404124386" fill="#8B5CF6" opacity="0.32193935860129014"/><circle cx="939.2024911373876" cy="250.84705785927088" r="98.65057386332245" fill="#22C55E" opacity="0.23579650547895256"/><circle cx="927.4754793639067" cy="53.58920102341958" r="87.3707442240517" fill="#A78BFA" opacity="0.36874578252317924"/><circle cx="41.468446181592014" cy="640.122694000716" r="34.211932098690355" fill="#A78BFA" opacity="0.20125850546290958"/><circle cx="1006.8114820931213" cy="187.05403375164983" r="81.71500610347371" fill="#22C55E" opacity="0.2444516004477177"/><circle cx="792.1997684912754" cy="334.3414827569774" r="27.730434059845688" fill="#8B5CF6" opacity="0.30789688910161783"/><circle cx="92.06340638181513" cy="339.786486644099" r="59.148462898236204" fill="#A78BFA" opacity="0.28945019816928563"/><circle cx="757.9259853418228" cy="308.02606633680506" r="39.41007727702156" fill="#1E293B" opacity="0.174646637471995"/><circle cx="1144.151022046945" cy="630.818653321656" r="76.9107701041836" fill="#0EA5E9" opacity="0.24624296850174943"/><circle cx="22.29124849875574" cy="166.01515688562313" r="81.67467383823792" fill="#8B5CF6" opacity="0.29447693991891755"/><circle cx="295.7201720175521" cy="645.9587840791409" r="82.9285223623072" fill="#22C55E" opacity="0.19652627152067262"/>
<g transform="translate(480,280)"><circle cx="120" cy="120" r="28.799999999999997" fill="#8B5CF6" opacity="0.5"/><path d="M120,60 A60,60 0 0 1 180,120" fill="none" stroke="#8B5CF6" stroke-width="2" opacity="0.3"/><path d="M120,36 A84,84 0 0 1 204,120" fill="none" stroke="#8B5CF6" stroke-width="2" opacity="0.2"/></g>
</svg>