<svg xmlns="http://www.w3.org/2000/svg" viewBox="0 0 800 600" width="800" height="600">
<defs><linearGradient id="g297" gradientTransform="rotate(83)"><stop offset="0%" stop-color="#22C55E" stop-opacity="0.08"/><stop offset="100%" stop-color="#0EA5E9" stop-opacity="0.15"/></linearGradient></defs>
<rect width="800" height="600" fill="#F8FAFC"/>
<rect width="800" height="600" fill="url(#g297)"/>
<circle cx="483.0320753930435" cy="540.0702086650489" r="41.3330003072815" fill="#A78BFA" opacity="0.180375047894544"/><circle cx="702.4844865337801" cy="192.57445213624692" r="46.50936565036827" fill="#0EA5E9" opacity="0.3623344822435961"/><circle cx="681.7156343550567" cy="596.0006483793264" r="97.71964568432388" fill="#1E293B" opacity="0.20189168015671122"/><circle cx="249.2531845804799" cy="298.7081657151768" r="45.085804374037124" fill="#0EA5E9" opacity="0.2655426953598323"/><circle cx="202.88523976028455" cy="219.17199307975545" r="49.82542290336026" fill="#1E293B" opacity="0.1290881712260546"/><circle cx="493.05577733838544" cy="291.3390962326332" r="91.49237300408294" fill="#A78BFA" opacity="0.20143105099110964"/><circle cx="404.4681642246136" cy="222.32941381850225" r="85.39480044077598" fill="#A78BFA" opacity="0.32400489703193763"/><circle cx="400.81336125807223" cy="352.6243413357291" r="67.6409020718568" fill="#A78BFA" opacity="0.39845803868813257"/><circle cx="491.34998255535027" cy="389.3694174376963" r="90.90673650699364" fill="#A78BFA" opacity="0.29419947098400395"/><circle cx="561.3590830577157" cy="271.5831138860277" r="59.65302035180202" fill="#A78BFA" opacity="0.1104418563288095"/><circle cx="790.0842253026406" cy="409.1810542244288" r="87.4639791133478" fill="#0EA5E9" opacity="0.3258350575117721"/>
<g transform="translate(310,210)"><circle cx="90" cy="90" r="21.599999999999998" fill="#0EA5E9" opacity="0.5"/><path d="M90,45 A45,45 0 0 1 135,90" fill="none" stroke="#0EA5E9" stroke-width="2" opacity="0.3"/><path d="M90,27 A62.99999999999999,62.99999999999999 0 0 1 153,90" fill="none" stroke="#0EA5E9" stroke-width="2" opacity="0.2"/></g>
</svg>