<svg xmlns="http://www.w3.org/2000/svg" viewBox="0 0 24 24" width="24" height="24"><path d="M12 7.8 8.6 10.8v4.9a.9.9 0 0 0 .9.9h5a.9.9 0 0 0 .9-.9v-4.9z" fill="none" stroke="#FFFFFF" stroke-width="2" stroke-linecap="round" stroke-linejoin="round"/><path d="M12.37 10.17 L10.64 12.77 h1.24 l-0.37 1.86 L13.36 12.03 h-1.24 z" fill="#0EA5E9" stroke="#0EA5E9" stroke-width="1" stroke-linecap="round" stroke-linejoin="round"/><line x1="12" y1="6.2" x2="12" y2="4.9" fill="none" stroke="#FFFFFF" stroke-width="2" stroke-linecap="round" stroke-linejoin="round"/><circle cx="12" cy="3.4" r="1.1" fill="#0EA5E9" stroke="#0EA5E9" stroke-width="1" stroke-linecap="round" stroke-linejoin="round"/><line x1="12" y1="18.3" x2="12" y2="19.1" fill="none" stroke="#FFFFFF" stroke-width="2" stroke-linecap="round" stroke-linejoin="round"/><circle cx="12" cy="20.6" r="1.1" fill="#0EA5E9" stroke="#0EA5E9" stroke-width="1" stroke-linecap="round" stroke-linejoin="round"/><line x1="16.4" y1="9.3" x2="17.8" y2="8.5" fill="none" stroke="#FFFFFF" stroke-width="2" stroke-linecap="round" stroke-linejoin="round"/><circle cx="19.3" cy="7.6" r="1.1" fill="#0EA5E9" stroke="#0EA5E9" stroke-width="1" stroke-linecap="round" stroke-linejoin="round"/><line x1="7.6" y1="9.3" x2="6.2" y2="8.5" fill="none" stroke="#FFFFFF" stroke-width="2" stroke-linecap="round" stroke-linejoin="round"/><circle cx="4.7" cy="7.6" r="1.1" fill="#0EA5E9" stroke="#0EA5E9" stroke-width="1" stroke-linecap="round" stroke-linejoin="round"/><line x1="16.4" y1="15.1" x2="17.8" y2="15.9" fill="none" stroke="#FFFFFF" stroke-width="2" stroke-linecap="round" stroke-linejoin="round"/><circle cx="19.3" cy="16.8" r="1.1" fill="#0EA5E9" stroke="#0EA5E9" stroke-width="1" stroke-linecap="round" stroke-linejoin="round"/><line x1="7.6" y1="15.1" x2="6.2" y2="15.9" fill="none" stroke="#FFFFFF" stroke-width="2" stroke-linecap="round" stroke-linejoin="round"/><circle cx="4.7" cy="16.8" r="1.1" fill="#0EA5E9" stroke="#0EA5E9" stroke-width="1" stroke-linecap="round" stroke-linejoin="round"/></svg>