<svg xmlns="http://www.w3.org/2000/svg" viewBox="0 0 24 24" width="24" height="24"><path d="M12 3.5l1.2 2.4a6.6 6.6 0 0 1 2.3 1.33l2.64-.5 1.5 2.6-1.87 1.94a6.6 6.6 0 0 1 0 2.66l1.87 1.94-1.5 2.6-2.64-.5a6.6 6.6 0 0 1-2.3 1.33L12 21.5l-1.2-2.16a6.6 6.6 0 0 1-2.3-1.33l-2.64.5-1.5-2.6 1.87-1.94a6.6 6.6 0 0 1 0-2.66L4.36 9.37l1.5-2.6 2.64.5a6.6 6.6 0 0 1 2.3-1.33z" fill="none" stroke="#0B2347" stroke-width="2" stroke-linecap="round" stroke-linejoin="round"/><circle cx="12" cy="12.5" r="2.8" fill="none" stroke="#0EA5E9" stroke-width="2" stroke-linecap="round" stroke-linejoin="round"/></svg>