<svg xmlns="http://www.w3.org/2000/svg" viewBox="0 0 24 24" width="24" height="24"><path d="M21.5 16.5v2.7a1.8 1.8 0 0 1-2 1.8 17.8 17.8 0 0 1-7.75-2.76 17.5 17.5 0 0 1-5.4-5.4A17.8 17.8 0 0 1 3.6 5.1a1.8 1.8 0 0 1 1.8-2h2.7a1.8 1.8 0 0 1 1.8 1.55c.11.86.32 1.71.63 2.53a1.8 1.8 0 0 1-.4 1.9L9 10.2a14.4 14.4 0 0 0 5.4 5.4l1.12-1.13a1.8 1.8 0 0 1 1.9-.4c.82.3 1.67.52 2.53.63a1.8 1.8 0 0 1 1.55 1.8z" fill="none" stroke="#FFFFFF" stroke-width="2" stroke-linecap="round" stroke-linejoin="round"/><path d="M14.5 6.5a4 4 0 0 1 3 3" fill="none" stroke="#0EA5E9" stroke-width="2" stroke-linecap="round" stroke-linejoin="round"/></svg>