<svg xmlns="http://www.w3.org/2000/svg" viewBox="0 0 1100 650" width="1100" height="650">
<rect width="1100" height="650" fill="#F8FAFC"/>
<rect x="50" y="50" width="150" height="150" rx="14" fill="#FFFFFF" stroke="#E2E8F0" stroke-width="2"/>
<g transform="translate(93,68) scale(2.667)"><path d="M4 14a1 1 0 0 1-.78-1.63l9.9-10.2a.5.5 0 0 1 .86.46l-1.92 6.02A1 1 0 0 0 13 10h7a1 1 0 0 1 .78 1.63l-9.9 10.2a.5.5 0 0 1-.86-.46l1.92-6.02A1 1 0 0 0 11 14z" fill="#0EA5E9" stroke="#0EA5E9" stroke-width="2" stroke-linecap="round" stroke-linejoin="round"/></g>
<text x="125" y="186" text-anchor="middle" font-family="Inter" font-size="15" fill="#475569">EV Charging</text><rect x="220" y="50" width="150" height="150" rx="14" fill="#FFFFFF" stroke="#E2E8F0" stroke-width="2"/>
<g transform="translate(263,68) scale(2.667)"><path d="M6.3 20.3a2.4 2.4 0 0 0 3.4 0L12 18l-6-6-2.3 2.3a2.4 2.4 0 0 0 0 3.4Z" fill="none" stroke="#0B2347" stroke-width="2" stroke-linecap="round" stroke-linejoin="round"/><path d="m2 22 3-3" fill="none" stroke="#0B2347" stroke-width="2" stroke-linecap="round" stroke-linejoin="round"/><path d="M7.5 13.5 10 11" fill="none" stroke="#0B2347" stroke-width="2" stroke-linecap="round" stroke-linejoin="round"/><path d="M10.5 16.5 13 14" fill="none" stroke="#0B2347" stroke-width="2" stroke-linecap="round" stroke-linejoin="round"/><path d="m18 3-4 4h6l-4 4" fill="none" stroke="#0EA5E9" stroke-width="2" stroke-linecap="round" stroke-linejoin="round"/></g>
<text x="295" y="186" text-anchor="middle" font-family="Inter" font-size="15" fill="#475569">Charge Point</text><rect x="390" y="50" width="150" height="150" rx="14" fill="#FFFFFF" stroke="#E2E8F0" stroke-width="2"/>
<g transform="translate(433,68) scale(2.667)"><path d="M19 17h2c.6 0 1-.4 1-1v-3c0-.9-.7-1.7-1.5-1.9C18.7 10.6 16 10 16 10s-1.3-1.4-2.2-2.3c-.5-.4-1.1-.7-1.8-.7H5c-.6 0-1.1.4-1.4.9l-1.4 2.9A3.7 3.7 0 0 0 2 12v4c0 .6.4 1 1 1h2" fill="none" stroke="#0B2347" stroke-width="2" stroke-linecap="round" stroke-linejoin="round"/><circle cx="7" cy="17" r="2" fill="none" stroke="#0B2347" stroke-width="2" stroke-linecap="round" stroke-linejoin="round"/><path d="M9 17h6" fill="none" stroke="#0EA5E9" stroke-width="2" stroke-linecap="round" stroke-linejoin="round"/><circle cx="17" cy="17" r="2" fill="none" stroke="#0B2347" stroke-width="2" stroke-linecap="round" stroke-linejoin="round"/></g>
<text x="465" y="186" text-anchor="middle" font-family="Inter" font-size="15" fill="#475569">Electric Vehicle</text><rect x="560" y="50" width="150" height="150" rx="14" fill="#FFFFFF" stroke="#E2E8F0" stroke-width="2"/>
<g transform="translate(603,68) scale(2.667)"><circle cx="12" cy="12" r="4" fill="none" stroke="#0EA5E9" stroke-width="2" stroke-linecap="round" stroke-linejoin="round"/><path d="M12 2v2" fill="none" stroke="#0B2347" stroke-width="2" stroke-linecap="round" stroke-linejoin="round"/><path d="M12 20v2" fill="none" stroke="#0B2347" stroke-width="2" stroke-linecap="round" stroke-linejoin="round"/><path d="m4.93 4.93 1.41 1.41" fill="none" stroke="#0B2347" stroke-width="2" stroke-linecap="round" stroke-linejoin="round"/><path d="m17.66 17.66 1.41 1.41" fill="none" stroke="#0B2347" stroke-width="2" stroke-linecap="round" stroke-linejoin="round"/><path d="M2 12h2" fill="none" stroke="#0B2347" stroke-width="2" stroke-linecap="round" stroke-linejoin="round"/><path d="M20 12h2" fill="none" stroke="#0B2347" stroke-width="2" stroke-linecap="round" stroke-linejoin="round"/><path d="m6.34 17.66-1.41 1.41" fill="none" stroke="#0B2347" stroke-width="2" stroke-linecap="round" stroke-linejoin="round"/><path d="m19.07 4.93-1.41 1.41" fill="none" stroke="#0B2347" stroke-width="2" stroke-linecap="round" stroke-linejoin="round"/></g>
<text x="635" y="186" text-anchor="middle" font-family="Inter" font-size="15" fill="#475569">Solar</text><rect x="730" y="50" width="150" height="150" rx="14" fill="#FFFFFF" stroke="#E2E8F0" stroke-width="2"/>
<g transform="translate(773,68) scale(2.667)"><path d="M15 7h1a2 2 0 0 1 2 2v6a2 2 0 0 1-2 2h-2" fill="none" stroke="#0B2347" stroke-width="2" stroke-linecap="round" stroke-linejoin="round"/><path d="M6 7H4a2 2 0 0 0-2 2v6a2 2 0 0 0 2 2h1" fill="none" stroke="#0B2347" stroke-width="2" stroke-linecap="round" stroke-linejoin="round"/><path d="m11 7-3 5h4l-3 5" fill="none" stroke="#0EA5E9" stroke-width="2" stroke-linecap="round" stroke-linejoin="round"/><line x1="22" x2="22" y1="11" y2="13" fill="none" stroke="#0B2347" stroke-width="2" stroke-linecap="round" stroke-linejoin="round"/></g>
<text x="805" y="186" text-anchor="middle" font-family="Inter" font-size="15" fill="#475569">Battery Storage</text><rect x="900" y="50" width="150" height="150" rx="14" fill="#FFFFFF" stroke="#E2E8F0" stroke-width="2"/>
<g transform="translate(943,68) scale(2.667)"><path d="M10 12V8.964" fill="none" stroke="#0EA5E9" stroke-width="2" stroke-linecap="round" stroke-linejoin="round"/><path d="M14 12V8.964" fill="none" stroke="#0EA5E9" stroke-width="2" stroke-linecap="round" stroke-linejoin="round"/><path d="M15 12a1 1 0 0 1 1 1v2a2 2 0 0 1-2 2h-4a2 2 0 0 1-2-2v-2a1 1 0 0 1 1-1z" fill="none" stroke="#0B2347" stroke-width="2" stroke-linecap="round" stroke-linejoin="round"/><path d="M8.5 21H5a2 2 0 0 1-2-2v-9a2 2 0 0 1 .709-1.528l7-5.999a2 2 0 0 1 2.582 0l7 5.999A2 2 0 0 1 21 10v9a2 2 0 0 1-2 2h-5a2 2 0 0 1-2-2v-2" fill="none" stroke="#0B2347" stroke-width="2" stroke-linecap="round" stroke-linejoin="round"/></g>
<text x="975" y="186" text-anchor="middle" font-family="Inter" font-size="15" fill="#475569">Home Energy Hub</text><rect x="50" y="220" width="150" height="150" rx="14" fill="#FFFFFF" stroke="#E2E8F0" stroke-width="2"/>
<g transform="translate(93,238) scale(2.667)"><path d="M12 2v20" fill="none" stroke="#0B2347" stroke-width="2" stroke-linecap="round" stroke-linejoin="round"/><path d="M2 5h20" fill="none" stroke="#0B2347" stroke-width="2" stroke-linecap="round" stroke-linejoin="round"/><path d="M3 3v2" fill="none" stroke="#0B2347" stroke-width="2" stroke-linecap="round" stroke-linejoin="round"/><path d="M7 3v2" fill="none" stroke="#0B2347" stroke-width="2" stroke-linecap="round" stroke-linejoin="round"/><path d="M17 3v2" fill="none" stroke="#0B2347" stroke-width="2" stroke-linecap="round" stroke-linejoin="round"/><path d="M21 3v2" fill="none" stroke="#0B2347" stroke-width="2" stroke-linecap="round" stroke-linejoin="round"/><path d="m19 5-7 7-7-7" fill="none" stroke="#0EA5E9" stroke-width="2" stroke-linecap="round" stroke-linejoin="round"/></g>
<text x="125" y="356" text-anchor="middle" font-family="Inter" font-size="15" fill="#475569">Grid / VPP</text><rect x="220" y="220" width="150" height="150" rx="14" fill="#FFFFFF" stroke="#E2E8F0" stroke-width="2"/>
<g transform="translate(263,238) scale(2.667)"><path d="m16 3 4 4-4 4" fill="none" stroke="#0B2347" stroke-width="2" stroke-linecap="round" stroke-linejoin="round"/><path d="M20 7H4" fill="none" stroke="#0B2347" stroke-width="2" stroke-linecap="round" stroke-linejoin="round"/><path d="m8 21-4-4 4-4" fill="none" stroke="#0EA5E9" stroke-width="2" stroke-linecap="round" stroke-linejoin="round"/><path d="M4 17h16" fill="none" stroke="#0EA5E9" stroke-width="2" stroke-linecap="round" stroke-linejoin="round"/></g>
<text x="295" y="356" text-anchor="middle" font-family="Inter" font-size="15" fill="#475569">Vehicle-to-Grid</text><rect x="390" y="220" width="150" height="150" rx="14" fill="#FFFFFF" stroke="#E2E8F0" stroke-width="2"/>
<g transform="translate(433,238) scale(2.667)"><polyline points="22 7 13.5 15.5 8.5 10.5 2 17" fill="none" stroke="#0B2347" stroke-width="2" stroke-linecap="round" stroke-linejoin="round"/><polyline points="16 7 22 7 22 13" fill="none" stroke="#0EA5E9" stroke-width="2" stroke-linecap="round" stroke-linejoin="round"/></g>
<text x="465" y="356" text-anchor="middle" font-family="Inter" font-size="15" fill="#475569">Energy Trading</text><rect x="560" y="220" width="150" height="150" rx="14" fill="#FFFFFF" stroke="#E2E8F0" stroke-width="2"/>
<g transform="translate(603,238) scale(2.667)"><circle cx="12" cy="12" r="10" fill="none" stroke="#0B2347" stroke-width="2" stroke-linecap="round" stroke-linejoin="round"/><polyline points="12 6 12 12 16 14" fill="none" stroke="#0EA5E9" stroke-width="2" stroke-linecap="round" stroke-linejoin="round"/></g>
<text x="635" y="356" text-anchor="middle" font-family="Inter" font-size="15" fill="#475569">Smart Tariffs</text><rect x="730" y="220" width="150" height="150" rx="14" fill="#FFFFFF" stroke="#E2E8F0" stroke-width="2"/>
<g transform="translate(773,238) scale(2.667)"><path d="M14 18V6a2 2 0 0 0-2-2H4a2 2 0 0 0-2 2v11a1 1 0 0 0 1 1h2" fill="none" stroke="#0B2347" stroke-width="2" stroke-linecap="round" stroke-linejoin="round"/><path d="M15 18H9" fill="none" stroke="#0EA5E9" stroke-width="2" stroke-linecap="round" stroke-linejoin="round"/><path d="M19 18h2a1 1 0 0 0 1-1v-3.65a1 1 0 0 0-.22-.624l-3.48-4.35A1 1 0 0 0 17.52 8H14" fill="none" stroke="#0B2347" stroke-width="2" stroke-linecap="round" stroke-linejoin="round"/><circle cx="17" cy="18" r="2" fill="none" stroke="#0B2347" stroke-width="2" stroke-linecap="round" stroke-linejoin="round"/><circle cx="7" cy="18" r="2" fill="none" stroke="#0B2347" stroke-width="2" stroke-linecap="round" stroke-linejoin="round"/></g>
<text x="805" y="356" text-anchor="middle" font-family="Inter" font-size="15" fill="#475569">Fleet</text><rect x="900" y="220" width="150" height="150" rx="14" fill="#FFFFFF" stroke="#E2E8F0" stroke-width="2"/>
<g transform="translate(943,238) scale(2.667)"><path d="M4 2v20l2-1 2 1 2-1 2 1 2-1 2 1 2-1 2 1V2l-2 1-2-1-2 1-2-1-2 1-2-1-2 1Z" fill="none" stroke="#0B2347" stroke-width="2" stroke-linecap="round" stroke-linejoin="round"/><path d="M8 12h5" fill="none" stroke="#0B2347" stroke-width="2" stroke-linecap="round" stroke-linejoin="round"/><path d="M16 9.5a4 4 0 1 0 0 5.2" fill="none" stroke="#0EA5E9" stroke-width="2" stroke-linecap="round" stroke-linejoin="round"/></g>
<text x="975" y="356" text-anchor="middle" font-family="Inter" font-size="15" fill="#475569">ChargeBack</text><rect x="50" y="390" width="150" height="150" rx="14" fill="#FFFFFF" stroke="#E2E8F0" stroke-width="2"/>
<g transform="translate(93,408) scale(2.667)"><rect width="20" height="14" x="2" y="5" rx="2" fill="none" stroke="#0B2347" stroke-width="2" stroke-linecap="round" stroke-linejoin="round"/><line x1="2" x2="22" y1="10" y2="10" fill="none" stroke="#0EA5E9" stroke-width="2" stroke-linecap="round" stroke-linejoin="round"/></g>
<text x="125" y="526" text-anchor="middle" font-family="Inter" font-size="15" fill="#475569">Payments &amp; Billing</text><rect x="220" y="390" width="150" height="150" rx="14" fill="#FFFFFF" stroke="#E2E8F0" stroke-width="2"/>
<g transform="translate(263,408) scale(2.667)"><path d="M11 20A7 7 0 0 1 9.8 6.1C15.5 5 17 4.48 19 2c1 2 2 4.18 2 8 0 5.5-4.78 10-10 10Z" fill="none" stroke="#0B2347" stroke-width="2" stroke-linecap="round" stroke-linejoin="round"/><path d="M2 21c0-3 1.85-5.36 5.08-6C9.5 14.52 12 13 13 12" fill="none" stroke="#0EA5E9" stroke-width="2" stroke-linecap="round" stroke-linejoin="round"/></g>
<text x="295" y="526" text-anchor="middle" font-family="Inter" font-size="15" fill="#475569">Sustainability</text><rect x="390" y="390" width="150" height="150" rx="14" fill="#FFFFFF" stroke="#E2E8F0" stroke-width="2"/>
<g transform="translate(433,408) scale(2.667)"><path d="M3 3v16a2 2 0 0 0 2 2h16" fill="none" stroke="#0B2347" stroke-width="2" stroke-linecap="round" stroke-linejoin="round"/><path d="M18 17V9" fill="none" stroke="#0EA5E9" stroke-width="2" stroke-linecap="round" stroke-linejoin="round"/><path d="M13 17V5" fill="none" stroke="#0EA5E9" stroke-width="2" stroke-linecap="round" stroke-linejoin="round"/><path d="M8 17v-3" fill="none" stroke="#0EA5E9" stroke-width="2" stroke-linecap="round" stroke-linejoin="round"/></g>
<text x="465" y="526" text-anchor="middle" font-family="Inter" font-size="15" fill="#475569">Insights &amp; Reporting</text><rect x="560" y="390" width="150" height="150" rx="14" fill="#FFFFFF" stroke="#E2E8F0" stroke-width="2"/>
<g transform="translate(603,408) scale(2.667)"><path d="M20 10c0 4.993-5.539 10.193-7.399 11.799a1 1 0 0 1-1.202 0C9.539 20.193 4 14.993 4 10a8 8 0 0 1 16 0" fill="none" stroke="#0B2347" stroke-width="2" stroke-linecap="round" stroke-linejoin="round"/><circle cx="12" cy="10" r="3" fill="none" stroke="#0EA5E9" stroke-width="2" stroke-linecap="round" stroke-linejoin="round"/></g>
<text x="635" y="526" text-anchor="middle" font-family="Inter" font-size="15" fill="#475569">Roaming &amp; Locations</text><rect x="730" y="390" width="150" height="150" rx="14" fill="#FFFFFF" stroke="#E2E8F0" stroke-width="2"/>
<g transform="translate(773,408) scale(2.667)"><path d="M16 21v-2a4 4 0 0 0-4-4H6a4 4 0 0 0-4 4v2" fill="none" stroke="#0B2347" stroke-width="2" stroke-linecap="round" stroke-linejoin="round"/><circle cx="9" cy="7" r="4" fill="none" stroke="#0B2347" stroke-width="2" stroke-linecap="round" stroke-linejoin="round"/><path d="M22 21v-2a4 4 0 0 0-3-3.87" fill="none" stroke="#0EA5E9" stroke-width="2" stroke-linecap="round" stroke-linejoin="round"/><path d="M16 3.13a4 4 0 0 1 0 7.75" fill="none" stroke="#0EA5E9" stroke-width="2" stroke-linecap="round" stroke-linejoin="round"/></g>
<text x="805" y="526" text-anchor="middle" font-family="Inter" font-size="15" fill="#475569">Drivers &amp; Teams</text><rect x="900" y="390" width="150" height="150" rx="14" fill="#FFFFFF" stroke="#E2E8F0" stroke-width="2"/>
<g transform="translate(943,408) scale(2.667)"><path d="M12 8V4H8" fill="none" stroke="#0B2347" stroke-width="2" stroke-linecap="round" stroke-linejoin="round"/><rect width="16" height="12" x="4" y="8" rx="2" fill="none" stroke="#0B2347" stroke-width="2" stroke-linecap="round" stroke-linejoin="round"/><path d="M2 14h2" fill="none" stroke="#0B2347" stroke-width="2" stroke-linecap="round" stroke-linejoin="round"/><path d="M20 14h2" fill="none" stroke="#0B2347" stroke-width="2" stroke-linecap="round" stroke-linejoin="round"/><path d="M15 13v2" fill="none" stroke="#0EA5E9" stroke-width="2" stroke-linecap="round" stroke-linejoin="round"/><path d="M9 13v2" fill="none" stroke="#0EA5E9" stroke-width="2" stroke-linecap="round" stroke-linejoin="round"/></g>
<text x="975" y="526" text-anchor="middle" font-family="Inter" font-size="15" fill="#475569">Sparky AI Advisor</text>
<text x="40" y="626" font-family="Outfit" font-weight="600" font-size="20" fill="#0B2347">ChargeControl Icon Set — 24px grid · stroke 2 · round caps · cyan accent</text>
</svg>