<svg xmlns="http://www.w3.org/2000/svg" viewBox="0 0 1100 650" width="1100" height="650">
<rect width="1100" height="650" fill="#F8FAFC"/>
<rect x="50" y="50" width="150" height="150" rx="14" fill="#FFFFFF" stroke="#E2E8F0" stroke-width="2"/>
<g transform="translate(93,68) scale(2.667)"><path d="M13 2L6.5 12h4.5l-1 8L17 10h-4.5l0.5-8z" fill="#0EA5E9"/></g>
<text x="125" y="186" text-anchor="middle" font-family="Inter" font-size="15" fill="#475569">EV Charging</text><rect x="220" y="50" width="150" height="150" rx="14" fill="#FFFFFF" stroke="#E2E8F0" stroke-width="2"/>
<g transform="translate(263,68) scale(2.667)"><rect x="5" y="3" width="10" height="18" rx="2" fill="none" stroke="#0B2347" stroke-width="2" stroke-linecap="round" stroke-linejoin="round"/><path d="M11.5 7l-3 4.5h2l-0.7 4 3-4.5h-2l0.7-4z" fill="#0EA5E9"/><path d="M15 8h2a2 2 0 0 1 2 2v6a2 2 0 0 0 4 0" fill="none" stroke="#0EA5E9" stroke-width="2" stroke-linecap="round" stroke-linejoin="round"/></g>
<text x="295" y="186" text-anchor="middle" font-family="Inter" font-size="15" fill="#475569">Charge Point</text><rect x="390" y="50" width="150" height="150" rx="14" fill="#FFFFFF" stroke="#E2E8F0" stroke-width="2"/>
<g transform="translate(433,68) scale(2.667)"><path d="M3 13l1.5-4.5A2 2 0 0 1 6.4 7h8.2a2 2 0 0 1 1.9 1.4L18 13" fill="none" stroke="#0B2347" stroke-width="2" stroke-linecap="round" stroke-linejoin="round"/><path d="M3 13h15a3 3 0 0 1 3 3v1h-2" fill="none" stroke="#0B2347" stroke-width="2" stroke-linecap="round" stroke-linejoin="round"/><path d="M3 13v4h2" fill="none" stroke="#0B2347" stroke-width="2" stroke-linecap="round" stroke-linejoin="round"/><circle cx="7.5" cy="17" r="2" fill="none" stroke="#0B2347" stroke-width="2" stroke-linecap="round" stroke-linejoin="round"/><circle cx="16.5" cy="17" r="2" fill="none" stroke="#0B2347" stroke-width="2" stroke-linecap="round" stroke-linejoin="round"/><path d="M20 4l-2.2 3h1.6L17 10l0.4-2.2h-1.6L18 4h2z" fill="#0EA5E9"/></g>
<text x="465" y="186" text-anchor="middle" font-family="Inter" font-size="15" fill="#475569">Electric Vehicle</text><rect x="560" y="50" width="150" height="150" rx="14" fill="#FFFFFF" stroke="#E2E8F0" stroke-width="2"/>
<g transform="translate(603,68) scale(2.667)"><circle cx="12" cy="12" r="4" fill="none" stroke="#0EA5E9" stroke-width="2" stroke-linecap="round" stroke-linejoin="round"/><path d="M12 3v2M12 19v2M3 12h2M19 12h2M5.6 5.6l1.4 1.4M17 17l1.4 1.4M18.4 5.6L17 7M7 17l-1.4 1.4" fill="none" stroke="#0B2347" stroke-width="2" stroke-linecap="round" stroke-linejoin="round"/></g>
<text x="635" y="186" text-anchor="middle" font-family="Inter" font-size="15" fill="#475569">Solar</text><rect x="730" y="50" width="150" height="150" rx="14" fill="#FFFFFF" stroke="#E2E8F0" stroke-width="2"/>
<g transform="translate(773,68) scale(2.667)"><rect x="3" y="8" width="16" height="9" rx="2" fill="none" stroke="#0B2347" stroke-width="2" stroke-linecap="round" stroke-linejoin="round"/><path d="M21 11v3" fill="none" stroke="#0B2347" stroke-width="2" stroke-linecap="round" stroke-linejoin="round"/><path d="M11.8 9.5L9 13h2.2l-0.8 3 2.8-3.5H11l0.8-3z" fill="#0EA5E9"/></g>
<text x="805" y="186" text-anchor="middle" font-family="Inter" font-size="15" fill="#475569">Battery Storage</text><rect x="900" y="50" width="150" height="150" rx="14" fill="#FFFFFF" stroke="#E2E8F0" stroke-width="2"/>
<g transform="translate(943,68) scale(2.667)"><path d="M4 11l8-7 8 7" fill="none" stroke="#0B2347" stroke-width="2" stroke-linecap="round" stroke-linejoin="round"/><path d="M6 10v9h12v-9" fill="none" stroke="#0B2347" stroke-width="2" stroke-linecap="round" stroke-linejoin="round"/><path d="M12.8 11.5L9.8 15.5h2.4l-1 4.5 3-4.5h-2.4l1-4.5z" fill="#0EA5E9"/></g>
<text x="975" y="186" text-anchor="middle" font-family="Inter" font-size="15" fill="#475569">Home Energy Hub</text><rect x="50" y="220" width="150" height="150" rx="14" fill="#FFFFFF" stroke="#E2E8F0" stroke-width="2"/>
<g transform="translate(93,238) scale(2.667)"><path d="M9 21L11 9h2l2 12" fill="none" stroke="#0B2347" stroke-width="2" stroke-linecap="round" stroke-linejoin="round"/><path d="M7 5h10M6 9h12" fill="none" stroke="#0B2347" stroke-width="2" stroke-linecap="round" stroke-linejoin="round"/><path d="M12 2v3" fill="none" stroke="#0EA5E9" stroke-width="2" stroke-linecap="round" stroke-linejoin="round"/><path d="M9.7 13.5h4.6M8.9 17.5h6.2" fill="none" stroke="#0B2347" stroke-width="2" stroke-linecap="round" stroke-linejoin="round"/></g>
<text x="125" y="356" text-anchor="middle" font-family="Inter" font-size="15" fill="#475569">Grid / VPP</text><rect x="220" y="220" width="150" height="150" rx="14" fill="#FFFFFF" stroke="#E2E8F0" stroke-width="2"/>
<g transform="translate(263,238) scale(2.667)"><path d="M7 8a5 5 0 0 1 9-1.5" fill="none" stroke="#0B2347" stroke-width="2" stroke-linecap="round" stroke-linejoin="round"/><path d="M16 3.5v3h-3" fill="none" stroke="#0B2347" stroke-width="2" stroke-linecap="round" stroke-linejoin="round"/><path d="M17 16a5 5 0 0 1-9 1.5" fill="none" stroke="#0EA5E9" stroke-width="2" stroke-linecap="round" stroke-linejoin="round"/><path d="M8 20.5v-3h3" fill="none" stroke="#0EA5E9" stroke-width="2" stroke-linecap="round" stroke-linejoin="round"/><path d="M13 9.5l-2.6 3.5h2l-0.8 3.5 2.6-3.5h-2l0.8-3.5z" fill="#0EA5E9"/></g>
<text x="295" y="356" text-anchor="middle" font-family="Inter" font-size="15" fill="#475569">Vehicle-to-Grid</text><rect x="390" y="220" width="150" height="150" rx="14" fill="#FFFFFF" stroke="#E2E8F0" stroke-width="2"/>
<g transform="translate(433,238) scale(2.667)"><path d="M3 20h18" fill="none" stroke="#0B2347" stroke-width="2" stroke-linecap="round" stroke-linejoin="round"/><path d="M4 16l4-4 3 3 5-6 4 4" fill="none" stroke="#0EA5E9" stroke-width="2" stroke-linecap="round" stroke-linejoin="round"/><circle cx="8" cy="12" r="1.4" fill="#0EA5E9"/><circle cx="16" cy="9" r="1.4" fill="#0EA5E9"/></g>
<text x="465" y="356" text-anchor="middle" font-family="Inter" font-size="15" fill="#475569">Energy Trading</text><rect x="560" y="220" width="150" height="150" rx="14" fill="#FFFFFF" stroke="#E2E8F0" stroke-width="2"/>
<g transform="translate(603,238) scale(2.667)"><circle cx="12" cy="12" r="9" fill="none" stroke="#0B2347" stroke-width="2" stroke-linecap="round" stroke-linejoin="round"/><path d="M12 6v6l4 2" fill="none" stroke="#0EA5E9" stroke-width="2" stroke-linecap="round" stroke-linejoin="round"/><circle cx="12" cy="12" r="1.2" fill="#0EA5E9"/></g>
<text x="635" y="356" text-anchor="middle" font-family="Inter" font-size="15" fill="#475569">Smart Tariffs</text><rect x="730" y="220" width="150" height="150" rx="14" fill="#FFFFFF" stroke="#E2E8F0" stroke-width="2"/>
<g transform="translate(773,238) scale(2.667)"><rect x="3" y="5" width="12" height="8" rx="2" fill="none" stroke="#0B2347" stroke-width="2" stroke-linecap="round" stroke-linejoin="round"/><path d="M15 9h4l2 3v4h-2" fill="none" stroke="#0B2347" stroke-width="2" stroke-linecap="round" stroke-linejoin="round"/><circle cx="7" cy="17" r="2" fill="none" stroke="#0B2347" stroke-width="2" stroke-linecap="round" stroke-linejoin="round"/><circle cx="16" cy="17" r="2" fill="none" stroke="#0B2347" stroke-width="2" stroke-linecap="round" stroke-linejoin="round"/><path d="M9 17h5" fill="none" stroke="#0B2347" stroke-width="2" stroke-linecap="round" stroke-linejoin="round"/><path d="M3 17h2" fill="none" stroke="#0B2347" stroke-width="2" stroke-linecap="round" stroke-linejoin="round"/></g>
<text x="805" y="356" text-anchor="middle" font-family="Inter" font-size="15" fill="#475569">Fleet</text><rect x="900" y="220" width="150" height="150" rx="14" fill="#FFFFFF" stroke="#E2E8F0" stroke-width="2"/>
<g transform="translate(943,238) scale(2.667)"><path d="M4 9a8 8 0 0 1 14-2" fill="none" stroke="#0B2347" stroke-width="2" stroke-linecap="round" stroke-linejoin="round"/><path d="M18 3v4h-4" fill="none" stroke="#0B2347" stroke-width="2" stroke-linecap="round" stroke-linejoin="round"/><path d="M20 15a8 8 0 0 1-14 2" fill="none" stroke="#0B2347" stroke-width="2" stroke-linecap="round" stroke-linejoin="round"/><path d="M6 21v-4h4" fill="none" stroke="#0B2347" stroke-width="2" stroke-linecap="round" stroke-linejoin="round"/><text x="12" y="15" text-anchor="middle" font-family="Outfit" font-weight="700" font-size="9" fill="#0EA5E9">€</text></g>
<text x="975" y="356" text-anchor="middle" font-family="Inter" font-size="15" fill="#475569">ChargeBack</text><rect x="50" y="390" width="150" height="150" rx="14" fill="#FFFFFF" stroke="#E2E8F0" stroke-width="2"/>
<g transform="translate(93,408) scale(2.667)"><rect x="3" y="6" width="18" height="12" rx="2" fill="none" stroke="#0B2347" stroke-width="2" stroke-linecap="round" stroke-linejoin="round"/><path d="M3 10h18" fill="none" stroke="#0B2347" stroke-width="2" stroke-linecap="round" stroke-linejoin="round"/><path d="M7 15h4" fill="none" stroke="#0EA5E9" stroke-width="2" stroke-linecap="round" stroke-linejoin="round"/></g>
<text x="125" y="526" text-anchor="middle" font-family="Inter" font-size="15" fill="#475569">Payments &amp; Billing</text><rect x="220" y="390" width="150" height="150" rx="14" fill="#FFFFFF" stroke="#E2E8F0" stroke-width="2"/>
<g transform="translate(263,408) scale(2.667)"><path d="M6 15a9 9 0 0 1 12-9c1 0 2-.5 3-1-0.5 8-4 13-11 13a6.9 6.9 0 0 1-4-3z" fill="none" stroke="#0B2347" stroke-width="2" stroke-linecap="round" stroke-linejoin="round"/><path d="M4 21c2-5 5-8 10-10" fill="none" stroke="#0EA5E9" stroke-width="2" stroke-linecap="round" stroke-linejoin="round"/></g>
<text x="295" y="526" text-anchor="middle" font-family="Inter" font-size="15" fill="#475569">Sustainability</text><rect x="390" y="390" width="150" height="150" rx="14" fill="#FFFFFF" stroke="#E2E8F0" stroke-width="2"/>
<g transform="translate(433,408) scale(2.667)"><path d="M4 4v16h16" fill="none" stroke="#0B2347" stroke-width="2" stroke-linecap="round" stroke-linejoin="round"/><path d="M8 16v-5M12 16V8M16 16v-3M20 16V6" fill="none" stroke="#0EA5E9" stroke-width="2" stroke-linecap="round" stroke-linejoin="round"/></g>
<text x="465" y="526" text-anchor="middle" font-family="Inter" font-size="15" fill="#475569">Insights &amp; Reporting</text><rect x="560" y="390" width="150" height="150" rx="14" fill="#FFFFFF" stroke="#E2E8F0" stroke-width="2"/>
<g transform="translate(603,408) scale(2.667)"><path d="M12 21s-7-6.2-7-11a7 7 0 0 1 14 0c0 4.8-7 11-7 11z" fill="none" stroke="#0B2347" stroke-width="2" stroke-linecap="round" stroke-linejoin="round"/><path d="M13 6.5L10.4 10h2l-0.8 3.5 2.6-3.5h-2l0.8-3.5z" fill="#0EA5E9"/></g>
<text x="635" y="526" text-anchor="middle" font-family="Inter" font-size="15" fill="#475569">Roaming &amp; Locations</text><rect x="730" y="390" width="150" height="150" rx="14" fill="#FFFFFF" stroke="#E2E8F0" stroke-width="2"/>
<g transform="translate(773,408) scale(2.667)"><circle cx="9" cy="8" r="3.5" fill="none" stroke="#0B2347" stroke-width="2" stroke-linecap="round" stroke-linejoin="round"/><path d="M3 20a6 6 0 0 1 12 0" fill="none" stroke="#0B2347" stroke-width="2" stroke-linecap="round" stroke-linejoin="round"/><circle cx="17" cy="9" r="2.5" fill="none" stroke="#0EA5E9" stroke-width="2" stroke-linecap="round" stroke-linejoin="round"/><path d="M15.5 20a5 5 0 0 1 6.5-4.5" fill="none" stroke="#0EA5E9" stroke-width="2" stroke-linecap="round" stroke-linejoin="round"/></g>
<text x="805" y="526" text-anchor="middle" font-family="Inter" font-size="15" fill="#475569">Drivers &amp; Teams</text><rect x="900" y="390" width="150" height="150" rx="14" fill="#FFFFFF" stroke="#E2E8F0" stroke-width="2"/>
<g transform="translate(943,408) scale(2.667)"><rect x="5" y="7" width="14" height="11" rx="3" fill="none" stroke="#0B2347" stroke-width="2" stroke-linecap="round" stroke-linejoin="round"/><path d="M12 4v3" fill="none" stroke="#0B2347" stroke-width="2" stroke-linecap="round" stroke-linejoin="round"/><circle cx="12" cy="3.5" r="1" fill="#0EA5E9"/><circle cx="9.5" cy="12" r="1.2" fill="#0EA5E9"/><circle cx="14.5" cy="12" r="1.2" fill="#0EA5E9"/><path d="M9.5 15.5h5" fill="none" stroke="#0EA5E9" stroke-width="2" stroke-linecap="round" stroke-linejoin="round"/></g>
<text x="975" y="526" text-anchor="middle" font-family="Inter" font-size="15" fill="#475569">Sparky AI Advisor</text>
<text x="40" y="626" font-family="Outfit" font-weight="600" font-size="20" fill="#0B2347">ChargeControl Icon Set — 24px grid · stroke 2 · round caps · cyan accent</text>
</svg>