<svg xmlns="http://www.w3.org/2000/svg" viewBox="0 0 1920 1080" width="1920" height="1080">
<defs><linearGradient id="g499" gradientTransform="rotate(306)"><stop offset="0%" stop-color="#0EA5E9" stop-opacity="0.08"/><stop offset="100%" stop-color="#4ADE80" stop-opacity="0.15"/></linearGradient></defs>
<rect width="1920" height="1080" fill="#0F172A"/>
<rect width="1920" height="1080" fill="url(#g499)"/>
<circle cx="790.5697424621972" cy="396.9396005169857" r="35.101572922525534" fill="#38BDF8" opacity="0.1754449458564119"/><circle cx="1300.5233031702444" cy="346.0281918440277" r="92.28341235991886" fill="#4ADE80" opacity="0.19732291791338746"/><circle cx="680.2109212057767" cy="351.54135446207727" r="75.96667741981025" fill="#4ADE80" opacity="0.1863432606554993"/><circle cx="455.5744577716798" cy="1012.456816707232" r="91.23843903768662" fill="#1E293B" opacity="0.27510372053375814"/><circle cx="1716.6847253932476" cy="270.10196710946224" r="46.94574421918554" fill="#4ADE80" opacity="0.3054377019921669"/><circle cx="585.3319829193242" cy="851.9891459047693" r="74.93163005908173" fill="#22C55E" opacity="0.2582966143808296"/><circle cx="583.673648185724" cy="294.19622741099096" r="43.40742564146167" fill="#38BDF8" opacity="0.3773684970823754"/><circle cx="206.9160990853944" cy="291.8760383239724" r="34.85794657362433" fill="#22C55E" opacity="0.12468202447023431"/><circle cx="1477.0395259904112" cy="519.3656927713805" r="51.05205896408489" fill="#38BDF8" opacity="0.15355399330477604"/><circle cx="524.5913730977022" cy="94.06044745264617" r="81.77392983974323" fill="#4ADE80" opacity="0.30845281603602026"/><circle cx="425.4709360985746" cy="455.6445215415624" r="80.55395817435715" fill="#38BDF8" opacity="0.15923129185962612"/><circle cx="642.0746815223943" cy="533.9150707180752" r="84.48872832999446" fill="#1E293B" opacity="0.38030821898049505"/>
<g transform="translate(798,378)"><rect x="64.8" y="64.8" width="81" height="81" rx="2" fill="#0EA5E9" opacity="0.3" transform="rotate(15,105.3,105.3)"/><circle cx="210.6" cy="129.6" r="38.879999999999995" fill="#0EA5E9" opacity="0.25"/><polygon points="129.6,226.79999999999998 178.20000000000002,178.20000000000002 226.79999999999998,259.2" fill="#0EA5E9" opacity="0.2"/></g>
</svg>