<svg xmlns="http://www.w3.org/2000/svg" viewBox="0 0 1200 800" width="1200" height="800">
<defs><linearGradient id="g496" gradientTransform="rotate(90)"><stop offset="0%" stop-color="#38BDF8" stop-opacity="0.08"/><stop offset="100%" stop-color="#22C55E" stop-opacity="0.15"/></linearGradient></defs>
<rect width="1200" height="800" fill="#F8FAFC"/>
<rect width="1200" height="800" fill="url(#g496)"/>
<circle cx="729.2116637613733" cy="173.6243476845551" r="70.44164364267294" fill="#0EA5E9" opacity="0.1443300463672076"/><circle cx="620.3651782314901" cy="585.036715292406" r="91.20756018087972" fill="#4ADE80" opacity="0.1522488322129928"/><circle cx="184.49977057473714" cy="58.43466451245794" r="71.14122645104418" fill="#0EA5E9" opacity="0.24895041542961302"/><circle cx="838.53323053432" cy="285.33894595255975" r="69.16686524559452" fill="#1E293B" opacity="0.20070429933322995"/><circle cx="948.6418133123236" cy="415.3055381172388" r="24.018214683996714" fill="#0EA5E9" opacity="0.26271963963538375"/><circle cx="115.93770470091859" cy="643.340928334129" r="83.0983737698741" fill="#0EA5E9" opacity="0.2663629674039436"/><circle cx="249.57681545016993" cy="425.02980607098885" r="47.595356952022165" fill="#22C55E" opacity="0.29934824556051587"/><circle cx="183.85569284097824" cy="41.75835367455925" r="43.26561423322708" fill="#4ADE80" opacity="0.1792430544078751"/><circle cx="552.0686432272835" cy="145.12786096439498" r="96.3964353840765" fill="#4ADE80" opacity="0.20613783705619892"/><circle cx="234.5156826400344" cy="470.0571247097637" r="45.00975789968833" fill="#1E293B" opacity="0.39016552459463993"/><circle cx="47.88775578875817" cy="566.3470389008029" r="39.468463416647594" fill="#0EA5E9" opacity="0.17210164481969703"/><circle cx="449.38507270941983" cy="9.94860083791297" r="20.614046566760212" fill="#0EA5E9" opacity="0.12732039389882274"/>
<g transform="translate(480,280)"><rect x="48" y="48" width="60" height="60" rx="2" fill="#1E293B" opacity="0.3" transform="rotate(15,78,78)"/><circle cx="156" cy="96" r="28.799999999999997" fill="#1E293B" opacity="0.25"/><polygon points="96,168 132,132 168,192" fill="#1E293B" opacity="0.2"/></g>
</svg>