<svg xmlns="http://www.w3.org/2000/svg" viewBox="0 0 1080 1080" width="1080" height="1080">
<defs><linearGradient id="g493" gradientTransform="rotate(235)"><stop offset="0%" stop-color="#22C55E" stop-opacity="0.08"/><stop offset="100%" stop-color="#0EA5E9" stop-opacity="0.15"/></linearGradient></defs>
<rect width="1080" height="1080" fill="#0F172A"/>
<rect width="1080" height="1080" fill="url(#g493)"/>
<circle cx="867.8855146354861" cy="71.84613823131299" r="25.781714325567442" fill="#38BDF8" opacity="0.11321514687800328"/><circle cx="385.1129627834195" cy="153.57093894255436" r="90.1317080018406" fill="#38BDF8" opacity="0.10717474651259813"/><circle cx="1029.4809443591917" cy="886.2322402244733" r="66.3157754822781" fill="#1E293B" opacity="0.3115575702037267"/><circle cx="173.09918196229188" cy="837.9583378675937" r="47.09529145350241" fill="#1E293B" opacity="0.12630487813270175"/><circle cx="741.9201059284808" cy="851.2229858070825" r="81.0906851860608" fill="#1E293B" opacity="0.22000157727860062"/><circle cx="959.4386285724478" cy="885.0313605973789" r="91.26511748066649" fill="#4ADE80" opacity="0.2744293204270576"/><circle cx="120.92184070583605" cy="853.3842489806788" r="51.78328826258266" fill="#1E293B" opacity="0.22132799403865633"/><circle cx="214.54994137822646" cy="900.8715171002518" r="51.673281892829834" fill="#0EA5E9" opacity="0.2338040843455159"/><circle cx="162.88882443950402" cy="952.4795323354001" r="61.74081176681519" fill="#1E293B" opacity="0.25872168080762187"/><circle cx="127.04558138460442" cy="95.09378876080157" r="88.24558599688632" fill="#22C55E" opacity="0.1718782330135612"/><circle cx="926.8705593672306" cy="1073.4924834906053" r="78.38296869619094" fill="#22C55E" opacity="0.18497199777976797"/><circle cx="447.72612252060895" cy="572.946152047204" r="36.73936484077886" fill="#38BDF8" opacity="0.17433256895684876"/>
<g transform="translate(378,378)"><rect x="64.8" y="64.8" width="81" height="81" rx="2" fill="#0EA5E9" opacity="0.3" transform="rotate(15,105.3,105.3)"/><circle cx="210.6" cy="129.6" r="38.879999999999995" fill="#0EA5E9" opacity="0.25"/><polygon points="129.6,226.79999999999998 178.20000000000002,178.20000000000002 226.79999999999998,259.2" fill="#0EA5E9" opacity="0.2"/></g>
</svg>