<svg xmlns="http://www.w3.org/2000/svg" viewBox="0 0 820 312" width="820" height="312">
<defs><linearGradient id="fbar" x1="0%" y1="0%" x2="100%" y2="0%"><stop offset="0%" stop-color="#0EA5E9"/><stop offset="100%" stop-color="#38BDF8"/></linearGradient></defs>
<rect width="820" height="312" fill="#F4F8FC"/>
<g transform="translate(585,-60) scale(9.5)" opacity="0.08">
<path d="M16 4C22.6274 4 28 9.37258 28 16C28 18.068 27.4755 20.012 26.545 21.716" stroke="#0EA5E9" stroke-width="5" stroke-linecap="round" fill="none"/>
<path d="M23.95 25.5C21.84 27.08 19.1 28 16 28C9.37258 28 4 22.6274 4 16C4 11.2 6.8 7.1 10.9 5.2" stroke="#0B2347" stroke-width="5" stroke-linecap="round" fill="none"/>
<path d="M17.5 8L11 17h5.5l-1 7L22 15h-5.5l1-7z" fill="#0EA5E9"/>
</g>
<g transform="translate(268,86) scale(2.625)">
<path d="M16 4C22.6274 4 28 9.37258 28 16C28 18.068 27.4755 20.012 26.545 21.716" stroke="#0EA5E9" stroke-width="5" stroke-linecap="round" fill="none"/>
<path d="M23.95 25.5C21.84 27.08 19.1 28 16 28C9.37258 28 4 22.6274 4 16C4 11.2 6.8 7.1 10.9 5.2" stroke="#0B2347" stroke-width="5" stroke-linecap="round" fill="none"/>
<path d="M17.5 8L11 17h5.5l-1 7L22 15h-5.5l1-7z" fill="#0EA5E9"/>
</g>
<text x="368" y="148" font-family="Outfit, sans-serif" font-weight="700" font-size="52" fill="#0B2347">ChargeControl</text>
<text x="262" y="208" font-family="Outfit, sans-serif" font-weight="600" font-size="19" letter-spacing="3.4" fill="#0A6E9E">THE INTELLIGENT ENERGY PLATFORM</text>
<text x="262" y="246" font-family="Outfit, sans-serif" font-weight="400" font-size="18" fill="#4A5E78">EV charging · Home energy · Fleet reimbursement</text>
<rect x="262" y="268" width="300" height="6" rx="3" fill="url(#fbar)"/>
</svg>