<svg xmlns="http://www.w3.org/2000/svg" viewBox="0 0 1080 1080" width="1080" height="1080">
<defs><linearGradient id="ibg" x1="0%" y1="0%" x2="100%" y2="100%"><stop offset="0%" stop-color="#0E2E5C"/><stop offset="55%" stop-color="#0B2347"/><stop offset="100%" stop-color="#070F1F"/></linearGradient>
<linearGradient id="ibar" x1="0%" y1="0%" x2="100%" y2="0%"><stop offset="0%" stop-color="#0EA5E9"/><stop offset="100%" stop-color="#38BDF8"/></linearGradient>
<linearGradient id="ibolt" x1="0%" y1="0%" x2="0%" y2="100%"><stop offset="0%" stop-color="#38BDF8" stop-opacity="0.30"/><stop offset="100%" stop-color="#0EA5E9" stop-opacity="0.06"/></linearGradient></defs>
<rect width="1080" height="1080" fill="url(#ibg)"/>
<g transform="translate(430,120) scale(38)"><path d="M17.5 8L11 17h5.5l-1 7L22 15h-5.5l1-7z" fill="url(#ibolt)"/></g>
<g transform="translate(82,80) scale(2.375)">
<path d="M16 4C22.6274 4 28 9.37258 28 16C28 18.068 27.4755 20.012 26.545 21.716" stroke="#0EA5E9" stroke-width="5" stroke-linecap="round" fill="none"/>
<path d="M23.95 25.5C21.84 27.08 19.1 28 16 28C9.37258 28 4 22.6274 4 16C4 11.2 6.8 7.1 10.9 5.2" stroke="#FFFFFF" stroke-width="5" stroke-linecap="round" fill="none"/>
<path d="M17.5 8L11 17h5.5l-1 7L22 15h-5.5l1-7z" fill="#0EA5E9"/>
</g>
<text x="174" y="136" font-family="Outfit, sans-serif" font-weight="600" font-size="46" fill="#FFFFFF">ChargeControl</text>
<text x="84" y="560" font-family="Outfit, sans-serif" font-weight="700" font-size="108" fill="#FFFFFF">Charge smarter.</text>
<text x="84" y="680" font-family="Outfit, sans-serif" font-weight="700" font-size="108" fill="#38BDF8">Every day.</text>
<text x="84" y="780" font-family="Outfit, sans-serif" font-weight="400" font-size="34" fill="#9FB4CC">One platform for EV charging, home energy</text>
<text x="84" y="828" font-family="Outfit, sans-serif" font-weight="400" font-size="34" fill="#9FB4CC">and automatic reimbursement.</text>
<rect x="84" y="924" width="360" height="8" rx="4" fill="url(#ibar)"/>
<text x="84" y="996" font-family="JetBrains Mono, sans-serif" font-weight="500" font-size="32" fill="#FFFFFF">chargecontrol.ai</text>
</svg>