<svg xmlns="http://www.w3.org/2000/svg" viewBox="0 0 1080 1080" width="1080" height="1080">
<defs>
    <linearGradient id="bg" x1="0%" y1="0%" x2="100%" y2="100%">
      <stop offset="0%" stop-color="#0F172A"/>
      <stop offset="100%" stop-color="#1E293B"/>
    </linearGradient>
    <linearGradient id="accent" x1="0%" y1="0%" x2="100%" y2="0%">
      <stop offset="0%" stop-color="#0EA5E9"/>
      <stop offset="100%" stop-color="#22C55E"/>
    </linearGradient>
  </defs>
<rect width="1080" height="1080" fill="url(#bg)"/>
<rect y="993.6" width="1080" height="86.4" fill="url(#accent)" opacity="0.8"/>
<g opacity="0.06">
  <line x1="67.5" y1="0" x2="67.5" y2="1080" stroke="#0EA5E9" stroke-width="1"/><line x1="135" y1="0" x2="135" y2="1080" stroke="#0EA5E9" stroke-width="1"/><line x1="202.5" y1="0" x2="202.5" y2="1080" stroke="#0EA5E9" stroke-width="1"/><line x1="270" y1="0" x2="270" y2="1080" stroke="#0EA5E9" stroke-width="1"/><line x1="337.5" y1="0" x2="337.5" y2="1080" stroke="#0EA5E9" stroke-width="1"/><line x1="405" y1="0" x2="405" y2="1080" stroke="#0EA5E9" stroke-width="1"/><line x1="472.5" y1="0" x2="472.5" y2="1080" stroke="#0EA5E9" stroke-width="1"/><line x1="540" y1="0" x2="540" y2="1080" stroke="#0EA5E9" stroke-width="1"/><line x1="607.5" y1="0" x2="607.5" y2="1080" stroke="#0EA5E9" stroke-width="1"/><line x1="675" y1="0" x2="675" y2="1080" stroke="#0EA5E9" stroke-width="1"/><line x1="742.5" y1="0" x2="742.5" y2="1080" stroke="#0EA5E9" stroke-width="1"/><line x1="810" y1="0" x2="810" y2="1080" stroke="#0EA5E9" stroke-width="1"/><line x1="877.5" y1="0" x2="877.5" y2="1080" stroke="#0EA5E9" stroke-width="1"/><line x1="945" y1="0" x2="945" y2="1080" stroke="#0EA5E9" stroke-width="1"/><line x1="1012.5" y1="0" x2="1012.5" y2="1080" stroke="#0EA5E9" stroke-width="1"/>
</g>
<g transform="translate(86.4,540)">
  <g transform="scale(5.4)">
    <path d="M0,-12 C14,-12 13,2 11,7" stroke="#0EA5E9" stroke-width="5" stroke-linecap="round" fill="none"/>
    <path d="M8,11 C2,13 -10,13 -12,3 C-13,-5 -9,-11 -3,-12" stroke="white" stroke-width="5" stroke-linecap="round" fill="none" opacity="0.9"/>
    <path d="M1.5,-7 L-3,1 L0.5,1 L-0.5,7 L4,-1 L1,-1 Z" fill="#0EA5E9"/>
  </g>
</g>
<text x="464.4" y="518.4" font-family="system-ui,-apple-system,sans-serif" font-size="151.20000000000002" font-weight="700" fill="white">ChargeControl</text>
<text x="464.4" y="669.6" font-family="system-ui,-apple-system,sans-serif" font-size="70.2" fill="#0EA5E9" opacity="0.9">Smart Energy Management Platform</text>
</svg>