<svg xmlns="http://www.w3.org/2000/svg" viewBox="0 0 1584 396" width="1584" height="396">
<defs><linearGradient id="lbg" x1="0%" y1="0%" x2="100%" y2="0%"><stop offset="0%" stop-color="#070F1F"/><stop offset="45%" stop-color="#0B2347"/><stop offset="100%" stop-color="#0E2E5C"/></linearGradient>
<linearGradient id="lbar" x1="0%" y1="0%" x2="100%" y2="0%"><stop offset="0%" stop-color="#0EA5E9" stop-opacity="0"/><stop offset="100%" stop-color="#0EA5E9"/></linearGradient></defs>
<rect width="1584" height="396" fill="url(#lbg)"/>
<g transform="translate(60,-95) scale(18)" opacity="0.05">
<path d="M16 4C22.6274 4 28 9.37258 28 16C28 18.068 27.4755 20.012 26.545 21.716" stroke="#FFFFFF" stroke-width="5" stroke-linecap="round" fill="none"/>
<path d="M23.95 25.5C21.84 27.08 19.1 28 16 28C9.37258 28 4 22.6274 4 16C4 11.2 6.8 7.1 10.9 5.2" stroke="#FFFFFF" stroke-width="5" stroke-linecap="round" fill="none"/>
<path d="M17.5 8L11 17h5.5l-1 7L22 15h-5.5l1-7z" fill="#FFFFFF"/>
</g>
<line x1="588" y1="70" x2="588" y2="326" stroke="#0EA5E9" stroke-width="3" opacity="0.5"/>
<g transform="translate(630,98) scale(3.375)">
<path d="M16 4C22.6274 4 28 9.37258 28 16C28 18.068 27.4755 20.012 26.545 21.716" stroke="#0EA5E9" stroke-width="5" stroke-linecap="round" fill="none"/>
<path d="M23.95 25.5C21.84 27.08 19.1 28 16 28C9.37258 28 4 22.6274 4 16C4 11.2 6.8 7.1 10.9 5.2" stroke="#FFFFFF" stroke-width="5" stroke-linecap="round" fill="none"/>
<path d="M17.5 8L11 17h5.5l-1 7L22 15h-5.5l1-7z" fill="#0EA5E9"/>
</g>
<text x="762" y="178" font-family="Outfit, sans-serif" font-weight="700" font-size="74" fill="#FFFFFF">ChargeControl</text>
<text x="644" y="258" font-family="Outfit, sans-serif" font-weight="500" font-size="26" letter-spacing="5" fill="#38BDF8">THE INTELLIGENT ENERGY PLATFORM</text>
<text x="644" y="300" font-family="Outfit, sans-serif" font-weight="400" font-size="22" fill="#9FB4CC">EV charging · Home energy · Fleet reimbursement</text>
<rect x="1024" y="386" width="560" height="10" fill="url(#lbar)"/>
</svg>