<svg xmlns="http://www.w3.org/2000/svg" viewBox="0 0 400 400" width="400" height="400">
<defs><radialGradient id="xg" cx="50%" cy="50%" r="70%"><stop offset="0%" stop-color="#0C1A30"/><stop offset="100%" stop-color="#070F1F"/></radialGradient>
<radialGradient id="glow" cx="50%" cy="50%" r="50%"><stop offset="0%" stop-color="#0EA5E9" stop-opacity="0.28"/><stop offset="100%" stop-color="#0EA5E9" stop-opacity="0"/></radialGradient></defs>
<rect width="400" height="400" fill="url(#xg)"/>
<circle cx="200" cy="200" r="160" fill="url(#glow)"/>
<g transform="translate(84.00000000000001,84.00000000000001) scale(7.249999999999999)">
<path d="M16 4C22.6274 4 28 9.37258 28 16C28 18.068 27.4755 20.012 26.545 21.716" stroke="#0EA5E9" stroke-width="5" stroke-linecap="round" fill="none"/>
<path d="M23.95 25.5C21.84 27.08 19.1 28 16 28C9.37258 28 4 22.6274 4 16C4 11.2 6.8 7.1 10.9 5.2" stroke="#0EA5E9" stroke-width="5" stroke-linecap="round" fill="none"/>
<path d="M17.5 8L11 17h5.5l-1 7L22 15h-5.5l1-7z" fill="#0EA5E9"/>
</g>
</svg>