<svg xmlns="http://www.w3.org/2000/svg" viewBox="0 0 2560 1440" width="2560" height="1440">
<defs>
<linearGradient id="bgNavy" x1="0%" y1="0%" x2="100%" y2="100%"><stop offset="0%" stop-color="#0E2E5C"/><stop offset="50%" stop-color="#0B2347"/><stop offset="100%" stop-color="#070F1F"/></linearGradient>
<linearGradient id="bgCyan" x1="0%" y1="0%" x2="100%" y2="100%"><stop offset="0%" stop-color="#38BDF8"/><stop offset="45%" stop-color="#0EA5E9"/><stop offset="100%" stop-color="#0B2347"/></linearGradient>
<linearGradient id="beam" x1="0%" y1="0%" x2="100%" y2="0%"><stop offset="0%" stop-color="#0EA5E9" stop-opacity="0"/><stop offset="50%" stop-color="#0EA5E9" stop-opacity="0.35"/><stop offset="100%" stop-color="#0EA5E9" stop-opacity="0"/></linearGradient>
<linearGradient id="bar" x1="0%" y1="0%" x2="100%" y2="0%"><stop offset="0%" stop-color="#0EA5E9"/><stop offset="70%" stop-color="#38BDF8"/><stop offset="100%" stop-color="#22C55E"/></linearGradient>
</defs>
<rect width="2560" height="1440" fill="url(#bgNavy)"/>
<g transform="translate(1331.2,604.8) scale(51.74999999999999)" opacity="0.05">
<path d="M16 4C22.6274 4 28 9.37258 28 16C28 18.068 27.4755 20.012 26.545 21.716" stroke="#FFFFFF" stroke-width="5" stroke-linecap="round" fill="none"/>
<path d="M23.95 25.5C21.84 27.08 19.1 28 16 28C9.37258 28 4 22.6274 4 16C4 11.2 6.8 7.1 10.9 5.2" stroke="#FFFFFF" stroke-width="5" stroke-linecap="round" fill="none"/>
<path d="M17.5 8L11 17h5.5l-1 7L22 15h-5.5l1-7z" fill="#FFFFFF"/>
</g>
<g transform="rotate(-18 1280 720)"><rect x="-512" y="892.8" width="3584" height="230.4" fill="url(#beam)"/></g>
<g transform="translate(1020.8,201.60000000000002) scale(16.2)">
<path d="M16 4C22.6274 4 28 9.37258 28 16C28 18.068 27.4755 20.012 26.545 21.716" stroke="#0EA5E9" stroke-width="5" stroke-linecap="round" fill="none"/>
<path d="M23.95 25.5C21.84 27.08 19.1 28 16 28C9.37258 28 4 22.6274 4 16C4 11.2 6.8 7.1 10.9 5.2" stroke="#FFFFFF" stroke-width="5" stroke-linecap="round" fill="none"/>
<path d="M17.5 8L11 17h5.5l-1 7L22 15h-5.5l1-7z" fill="#0EA5E9"/>
</g>
<text x="1280" y="957.6" text-anchor="middle" font-family="Outfit, sans-serif" font-weight="700" font-size="136.8" fill="#FFFFFF">ChargeControl</text>
<text x="1280" y="1087.2" text-anchor="middle" font-family="Outfit, sans-serif" font-weight="500" font-size="57.6" letter-spacing="11.52" fill="#38BDF8">THE INTELLIGENT ENERGY PLATFORM</text>
<rect y="1408.32" width="2560" height="31.68" fill="url(#bar)"/>
</svg>