<svg xmlns="http://www.w3.org/2000/svg" viewBox="0 0 2560 1440" width="2560" height="1440">
<defs><radialGradient id="ybg" cx="50%" cy="50%" r="72%"><stop offset="0%" stop-color="#0E2E5C"/><stop offset="55%" stop-color="#0B2347"/><stop offset="100%" stop-color="#070F1F"/></radialGradient>
<linearGradient id="ybeam" x1="0%" y1="0%" x2="100%" y2="0%"><stop offset="0%" stop-color="#0EA5E9" stop-opacity="0"/><stop offset="50%" stop-color="#0EA5E9" stop-opacity="0.30"/><stop offset="100%" stop-color="#0EA5E9" stop-opacity="0"/></linearGradient></defs>
<rect width="2560" height="1440" fill="url(#ybg)"/>
<g transform="rotate(-14 1280 720)"><rect x="-300" y="330" width="3160" height="90" fill="url(#ybeam)"/></g>
<g transform="rotate(-14 1280 720)"><rect x="-300" y="1030" width="3160" height="90" fill="url(#ybeam)"/></g>
<g transform="translate(130,990) scale(11)" opacity="0.05">
<path d="M16 4C22.6274 4 28 9.37258 28 16C28 18.068 27.4755 20.012 26.545 21.716" stroke="#FFFFFF" stroke-width="5" stroke-linecap="round" fill="none"/>
<path d="M23.95 25.5C21.84 27.08 19.1 28 16 28C9.37258 28 4 22.6274 4 16C4 11.2 6.8 7.1 10.9 5.2" stroke="#FFFFFF" stroke-width="5" stroke-linecap="round" fill="none"/>
<path d="M17.5 8L11 17h5.5l-1 7L22 15h-5.5l1-7z" fill="#FFFFFF"/>
</g>
<g transform="translate(2080,80) scale(11)" opacity="0.05">
<path d="M16 4C22.6274 4 28 9.37258 28 16C28 18.068 27.4755 20.012 26.545 21.716" stroke="#FFFFFF" stroke-width="5" stroke-linecap="round" fill="none"/>
<path d="M23.95 25.5C21.84 27.08 19.1 28 16 28C9.37258 28 4 22.6274 4 16C4 11.2 6.8 7.1 10.9 5.2" stroke="#FFFFFF" stroke-width="5" stroke-linecap="round" fill="none"/>
<path d="M17.5 8L11 17h5.5l-1 7L22 15h-5.5l1-7z" fill="#FFFFFF"/>
</g>
<g transform="translate(770,595) scale(5.3125)">
<path d="M16 4C22.6274 4 28 9.37258 28 16C28 18.068 27.4755 20.012 26.545 21.716" stroke="#0EA5E9" stroke-width="5" stroke-linecap="round" fill="none"/>
<path d="M23.95 25.5C21.84 27.08 19.1 28 16 28C9.37258 28 4 22.6274 4 16C4 11.2 6.8 7.1 10.9 5.2" stroke="#FFFFFF" stroke-width="5" stroke-linecap="round" fill="none"/>
<path d="M17.5 8L11 17h5.5l-1 7L22 15h-5.5l1-7z" fill="#0EA5E9"/>
</g>
<text x="970" y="716" font-family="Outfit, sans-serif" font-weight="700" font-size="118" fill="#FFFFFF">ChargeControl</text>
<text x="1280" y="826" font-family="Outfit, sans-serif" font-weight="500" font-size="38" letter-spacing="8" text-anchor="middle" fill="#38BDF8">THE INTELLIGENT ENERGY PLATFORM</text>
</svg>