<svg xmlns="http://www.w3.org/2000/svg" viewBox="0 0 800 800" width="800" height="800">
<defs><linearGradient id="yg" x1="0%" y1="0%" x2="0%" y2="100%"><stop offset="0%" stop-color="#0E2E5C"/><stop offset="100%" stop-color="#070F1F"/></linearGradient>
<radialGradient id="yglow" cx="50%" cy="46%" r="46%"><stop offset="0%" stop-color="#0EA5E9" stop-opacity="0.35"/><stop offset="100%" stop-color="#0EA5E9" stop-opacity="0"/></radialGradient></defs>
<rect width="800" height="800" fill="url(#yg)"/>
<circle cx="400" cy="368" r="336" fill="url(#yglow)"/>
<g transform="translate(160,160) scale(15)">
<path d="M16 4C22.6274 4 28 9.37258 28 16C28 18.068 27.4755 20.012 26.545 21.716" stroke="#0EA5E9" stroke-width="5" stroke-linecap="round" fill="none"/>
<path d="M23.95 25.5C21.84 27.08 19.1 28 16 28C9.37258 28 4 22.6274 4 16C4 11.2 6.8 7.1 10.9 5.2" stroke="#FFFFFF" stroke-width="5" stroke-linecap="round" fill="none"/>
<path d="M17.5 8L11 17h5.5l-1 7L22 15h-5.5l1-7z" fill="#0EA5E9"/>
</g>
</svg>