<svg xmlns="http://www.w3.org/2000/svg" viewBox="0 0 2560 1440" width="2560" height="1440">
<defs>
<linearGradient id="bg" x1="0%" y1="0%" x2="100%" y2="100%"><stop offset="0%" stop-color="#0A1628"/><stop offset="55%" stop-color="#0B2347"/><stop offset="100%" stop-color="#0A1628"/></linearGradient>
<radialGradient id="glow" cx="50%" cy="45%" r="60%"><stop offset="0%" stop-color="#0EA5E9" stop-opacity="0.22"/><stop offset="100%" stop-color="#0EA5E9" stop-opacity="0"/></radialGradient>
</defs>
<rect width="2560" height="1440" fill="url(#bg)"/>
<rect width="2560" height="1440" fill="url(#glow)"/>
<g transform="translate(230.39999999999998,403.2) scale(19.8)">
<path d="M16 4C22.6274 4 28 9.37258 28 16C28 18.068 27.4755 20.012 26.545 21.716" stroke="#0EA5E9" stroke-width="5" stroke-linecap="round" fill="none"/>
<path d="M23.95 25.5C21.84 27.08 19.1 28 16 28C9.37258 28 4 22.6274 4 16C4 11.2 6.8 7.1 10.9 5.2" stroke="#FFFFFF" stroke-width="5" stroke-linecap="round" fill="none"/>
<path d="M17.5 8L11 17h5.5l-1 7L22 15h-5.5l1-7z" fill="#0EA5E9"/>
</g>
<text x="1036.8" y="720" font-family="Outfit, sans-serif" font-weight="600" font-size="273.6" fill="#FFFFFF">ChargeControl</text>
<text x="1036.8" y="950.4000000000001" font-family="Outfit, sans-serif" font-weight="500" font-size="108" fill="#7DD3FC">The Intelligent Energy Platform</text>
<rect y="1414.08" width="2560" height="25.919999999999998" fill="#0EA5E9"/>
</svg>