<svg xmlns="http://www.w3.org/2000/svg" viewBox="0 0 1200 1400" width="1200" height="1400">
<defs>
<linearGradient id="bgNavy" x1="0%" y1="0%" x2="100%" y2="100%"><stop offset="0%" stop-color="#0E2E5C"/><stop offset="50%" stop-color="#0B2347"/><stop offset="100%" stop-color="#070F1F"/></linearGradient>
<linearGradient id="bgCyan" x1="0%" y1="0%" x2="100%" y2="100%"><stop offset="0%" stop-color="#38BDF8"/><stop offset="45%" stop-color="#0EA5E9"/><stop offset="100%" stop-color="#0B2347"/></linearGradient>
<linearGradient id="bgGreen" x1="0%" y1="0%" x2="100%" y2="100%"><stop offset="0%" stop-color="#134E4A"/><stop offset="50%" stop-color="#0B2F47"/><stop offset="100%" stop-color="#070F1F"/></linearGradient>
<linearGradient id="beam" x1="0%" y1="0%" x2="100%" y2="0%"><stop offset="0%" stop-color="#0EA5E9" stop-opacity="0"/><stop offset="50%" stop-color="#0EA5E9" stop-opacity="0.35"/><stop offset="100%" stop-color="#0EA5E9" stop-opacity="0"/></linearGradient>
<linearGradient id="bar" x1="0%" y1="0%" x2="100%" y2="0%"><stop offset="0%" stop-color="#0EA5E9"/><stop offset="70%" stop-color="#38BDF8"/><stop offset="100%" stop-color="#22C55E"/></linearGradient>
<linearGradient id="curveFill" x1="0%" y1="0%" x2="0%" y2="100%"><stop offset="0%" stop-color="#0EA5E9" stop-opacity="0.35"/><stop offset="100%" stop-color="#0EA5E9" stop-opacity="0"/></linearGradient>
<linearGradient id="euroFill" x1="0%" y1="0%" x2="0%" y2="100%"><stop offset="0%" stop-color="#22C55E" stop-opacity="0.30"/><stop offset="100%" stop-color="#22C55E" stop-opacity="0"/></linearGradient>
</defs>
<rect width="1200" height="1400" fill="#F8FAFC"/>
<rect width="1200" height="230" fill="url(#bgNavy)"/>
<g transform="translate(70,62) scale(2.25)" opacity="1">
<path d="M16 4C22.6274 4 28 9.37258 28 16C28 18.068 27.4755 20.012 26.545 21.716" stroke="#0EA5E9" stroke-width="5" stroke-linecap="round" fill="none"/>
<path d="M23.95 25.5C21.84 27.08 19.1 28 16 28C9.37258 28 4 22.6274 4 16C4 11.2 6.8 7.1 10.9 5.2" stroke="#FFFFFF" stroke-width="5" stroke-linecap="round" fill="none"/>
<path d="M17.5 8L11 17h5.5l-1 7L22 15h-5.5l1-7z" fill="#0EA5E9"/>
</g>
<text x="168" y="112" font-family="Outfit" font-weight="600" font-size="34" fill="#FFFFFF">ChargeControl</text>
<text x="72" y="168" font-family="Outfit" font-weight="500" font-size="20" letter-spacing="5" fill="#38BDF8">ERE — SINDS 1 JANUARI 2026</text>
<text x="70" y="212" font-family="Outfit" font-weight="700" font-size="42" fill="#FFFFFF">Zo verdient je wagenpark geld tijdens het laden</text>
<text x="70" y="296" font-family="Inter" font-size="23" fill="#475569">Sinds 1 januari levert elke geladen kWh verhandelbare ERE-waarde op.</text>
<text x="70" y="330" font-family="Inter" font-size="23" fill="#475569">Wat niet geregistreerd is, telt niet mee — elke maand wachten is opbrengst weg.</text>
<line x1="240" y1="520" x2="359" y2="520" stroke="#94A3B8" stroke-width="5" stroke-linecap="round" stroke-dasharray="1 12"/>
<path d="M375 520 l-20 -11 v22 z" fill="#94A3B8"/>
<line x1="535" y1="520" x2="649" y2="520" stroke="#94A3B8" stroke-width="5" stroke-linecap="round" stroke-dasharray="1 12"/>
<path d="M665 520 l-20 -11 v22 z" fill="#94A3B8"/>
<line x1="825" y1="520" x2="944" y2="520" stroke="#94A3B8" stroke-width="5" stroke-linecap="round" stroke-dasharray="1 12"/>
<path d="M960 520 l-20 -11 v22 z" fill="#94A3B8"/>
<circle cx="160" cy="520" r="58" fill="#0EA5E9"/>
<g transform="translate(122.3,482.3) scale(3.141666666666667)"><path d="M4 14a1 1 0 0 1-.78-1.63l9.9-10.2a.5.5 0 0 1 .86.46l-1.92 6.02A1 1 0 0 0 13 10h7a1 1 0 0 1 .78 1.63l-9.9 10.2a.5.5 0 0 1-.86-.46l1.92-6.02A1 1 0 0 0 11 14z" fill="#FFFFFF" stroke="#FFFFFF" stroke-width="2" stroke-linecap="round" stroke-linejoin="round"/></g>
<text x="160" y="622" text-anchor="middle" font-family="Outfit" font-weight="600" font-size="23" fill="#0B2347">Je EV's laden</text>
<text x="160" y="654" text-anchor="middle" font-family="Inter" font-size="19" fill="#64748B">gewoon zoals nu</text>
<circle cx="455" cy="520" r="58" fill="#0EA5E9"/>
<g transform="translate(417.3,482.3) scale(3.141666666666667)"><path d="M3 3v16a2 2 0 0 0 2 2h16" fill="none" stroke="#FFFFFF" stroke-width="2" stroke-linecap="round" stroke-linejoin="round"/><path d="M18 17V9" fill="none" stroke="#FFFFFF" stroke-width="2" stroke-linecap="round" stroke-linejoin="round"/><path d="M13 17V5" fill="none" stroke="#FFFFFF" stroke-width="2" stroke-linecap="round" stroke-linejoin="round"/><path d="M8 17v-3" fill="none" stroke="#FFFFFF" stroke-width="2" stroke-linecap="round" stroke-linejoin="round"/></g>
<text x="455" y="622" text-anchor="middle" font-family="Outfit" font-weight="600" font-size="23" fill="#0B2347">Elke kWh geregistreerd</text>
<text x="455" y="654" text-anchor="middle" font-family="Inter" font-size="19" fill="#64748B">automatisch, via de MID-meter</text>
<circle cx="745" cy="520" r="58" fill="#0B2347"/>
<g transform="translate(707.3,482.3) scale(3.141666666666667)"><path d="M20 13c0 5-3.5 7.5-7.66 8.95a1 1 0 0 1-.67-.01C7.5 20.5 4 18 4 13V6a1 1 0 0 1 1-1c2 0 4.5-1.2 6.24-2.72a1.17 1.17 0 0 1 1.52 0C14.51 3.81 17 5 19 5a1 1 0 0 1 1 1z" fill="none" stroke="#FFFFFF" stroke-width="2" stroke-linecap="round" stroke-linejoin="round"/><path d="m9 12 2 2 4-4" fill="none" stroke="#FFFFFF" stroke-width="2" stroke-linecap="round" stroke-linejoin="round"/></g>
<text x="745" y="622" text-anchor="middle" font-family="Outfit" font-weight="600" font-size="23" fill="#0B2347">Wij regelen de NEa</text>
<text x="745" y="654" text-anchor="middle" font-family="Inter" font-size="19" fill="#64748B">registratie, certificering, handel</text>
<circle cx="1040" cy="520" r="58" fill="#22C55E"/>
<g transform="translate(1002.3,482.3) scale(3.141666666666667)"><path d="M4 10h12" fill="none" stroke="#FFFFFF" stroke-width="2" stroke-linecap="round" stroke-linejoin="round"/><path d="M4 14h9" fill="none" stroke="#FFFFFF" stroke-width="2" stroke-linecap="round" stroke-linejoin="round"/><path d="M19 6a7.7 7.7 0 0 0-5.2-2A7.9 7.9 0 0 0 6 12c0 4.4 3.5 8 7.8 8 2 0 3.8-.8 5.2-2" fill="none" stroke="#FFFFFF" stroke-width="2" stroke-linecap="round" stroke-linejoin="round"/></g>
<text x="1040" y="622" text-anchor="middle" font-family="Outfit" font-weight="600" font-size="23" fill="#0B2347">ERE-geld naar jou</text>
<text x="1040" y="654" text-anchor="middle" font-family="Inter" font-size="19" fill="#64748B">elk jaar opnieuw</text>
<rect x="70" y="740" width="1060" height="330" rx="20" fill="#0B2347"/>
<text x="120" y="812" font-family="Outfit" font-weight="500" font-size="22" letter-spacing="4" fill="#38BDF8">REKENVOORBEELD</text>
<text x="120" y="892" font-family="JetBrains Mono" font-size="34" fill="#B8D4EE">25 EV's × 3.000 kWh × ±€0,10</text>
<text x="120" y="1000" font-family="Outfit" font-weight="700" font-size="76" fill="#FFFFFF">≈ €7.500 per jaar</text>
<text x="120" y="1044" font-family="Inter" font-size="21" fill="#7DD3FC">indicatief · ±€300 per EV per jaar · automatisch geregistreerd</text>
<rect x="70" y="1110" width="1060" height="150" rx="16" fill="#DCFCE7"/>
<text x="600" y="1172" text-anchor="middle" font-family="Outfit" font-weight="700" font-size="30" fill="#15803D">Benieuwd naar jullie bedrag? De scan is gratis en duurt 2 minuten.</text>
<text x="600" y="1216" text-anchor="middle" font-family="Inter" font-size="21" fill="#166534">Binnen 48 uur zie je jullie eigen ERE-opbrengst — geen monteur, geen verplichting.</text>
<rect y="1326" width="1200" height="74" fill="#0B2347"/>
<g transform="translate(60,1340) scale(1.375)" opacity="1">
<path d="M16 4C22.6274 4 28 9.37258 28 16C28 18.068 27.4755 20.012 26.545 21.716" stroke="#FFFFFF" stroke-width="5" stroke-linecap="round" fill="none"/>
<path d="M23.95 25.5C21.84 27.08 19.1 28 16 28C9.37258 28 4 22.6274 4 16C4 11.2 6.8 7.1 10.9 5.2" stroke="#FFFFFF" stroke-width="5" stroke-linecap="round" fill="none"/>
<path d="M17.5 8L11 17h5.5l-1 7L22 15h-5.5l1-7z" fill="#FFFFFF"/>
</g>
<text x="120" y="1372" font-family="Outfit" font-weight="600" font-size="22" fill="#FFFFFF">chargecontrol.ai</text>
<text x="1140" y="1372" text-anchor="end" font-family="Inter" font-size="18" fill="#7DD3FC">The Intelligent Energy Platform</text>
<rect y="1320" width="1200" height="6" fill="url(#bar)"/>
</svg>