<svg xmlns="http://www.w3.org/2000/svg" viewBox="0 0 1200 1200" width="1200" height="1200">
<defs>
<linearGradient id="bgNavy" x1="0%" y1="0%" x2="100%" y2="100%"><stop offset="0%" stop-color="#0E2E5C"/><stop offset="50%" stop-color="#0B2347"/><stop offset="100%" stop-color="#070F1F"/></linearGradient>
<linearGradient id="bgCyan" x1="0%" y1="0%" x2="100%" y2="100%"><stop offset="0%" stop-color="#38BDF8"/><stop offset="45%" stop-color="#0EA5E9"/><stop offset="100%" stop-color="#0B2347"/></linearGradient>
<linearGradient id="bgGreen" x1="0%" y1="0%" x2="100%" y2="100%"><stop offset="0%" stop-color="#134E4A"/><stop offset="50%" stop-color="#0B2F47"/><stop offset="100%" stop-color="#070F1F"/></linearGradient>
<linearGradient id="beam" x1="0%" y1="0%" x2="100%" y2="0%"><stop offset="0%" stop-color="#0EA5E9" stop-opacity="0"/><stop offset="50%" stop-color="#0EA5E9" stop-opacity="0.35"/><stop offset="100%" stop-color="#0EA5E9" stop-opacity="0"/></linearGradient>
<linearGradient id="bar" x1="0%" y1="0%" x2="100%" y2="0%"><stop offset="0%" stop-color="#0EA5E9"/><stop offset="70%" stop-color="#38BDF8"/><stop offset="100%" stop-color="#22C55E"/></linearGradient>
<linearGradient id="curveFill" x1="0%" y1="0%" x2="0%" y2="100%"><stop offset="0%" stop-color="#0EA5E9" stop-opacity="0.35"/><stop offset="100%" stop-color="#0EA5E9" stop-opacity="0"/></linearGradient>
<linearGradient id="euroFill" x1="0%" y1="0%" x2="0%" y2="100%"><stop offset="0%" stop-color="#22C55E" stop-opacity="0.30"/><stop offset="100%" stop-color="#22C55E" stop-opacity="0"/></linearGradient>
</defs>
<rect width="1200" height="1200" fill="url(#bgNavy)"/>
<g transform="translate(740,640) scale(28.125)" opacity="0.05">
<path d="M16 4C22.6274 4 28 9.37258 28 16C28 18.068 27.4755 20.012 26.545 21.716" stroke="#FFFFFF" stroke-width="5" stroke-linecap="round" fill="none"/>
<path d="M23.95 25.5C21.84 27.08 19.1 28 16 28C9.37258 28 4 22.6274 4 16C4 11.2 6.8 7.1 10.9 5.2" stroke="#FFFFFF" stroke-width="5" stroke-linecap="round" fill="none"/>
<path d="M17.5 8L11 17h5.5l-1 7L22 15h-5.5l1-7z" fill="#FFFFFF"/>
</g>
<g transform="translate(80,76) scale(2.25)" opacity="1">
<path d="M16 4C22.6274 4 28 9.37258 28 16C28 18.068 27.4755 20.012 26.545 21.716" stroke="#0EA5E9" stroke-width="5" stroke-linecap="round" fill="none"/>
<path d="M23.95 25.5C21.84 27.08 19.1 28 16 28C9.37258 28 4 22.6274 4 16C4 11.2 6.8 7.1 10.9 5.2" stroke="#FFFFFF" stroke-width="5" stroke-linecap="round" fill="none"/>
<path d="M17.5 8L11 17h5.5l-1 7L22 15h-5.5l1-7z" fill="#0EA5E9"/>
</g>
<text x="176" y="126" font-family="Outfit" font-weight="600" font-size="34" fill="#FFFFFF">ChargeControl</text>

<text x="80" y="300" font-family="Outfit" font-weight="500" font-size="26" letter-spacing="5" fill="#38BDF8">SINDS 1 JANUARI</text>
<text x="80" y="380" font-family="Outfit" font-weight="700" font-size="56" fill="#FFFFFF">Elke geladen kWh</text>
<text x="80" y="450" font-family="Outfit" font-weight="700" font-size="56" fill="#FFFFFF">verdient geld (ERE)</text>
<text x="80" y="516" font-family="Inter" font-size="30" fill="#B8D4EE">De meeste wagenparken laten het liggen.</text>
<rect x="80" y="590" width="1040" height="330" rx="24" fill="#FFFFFF" opacity="0.07"/>
<rect x="80" y="590" width="12" height="330" rx="6" fill="#0EA5E9"/>
<text x="140" y="666" font-family="Outfit" font-weight="500" font-size="24" letter-spacing="4" fill="#38BDF8">REKENVOORBEELD</text>
<text x="140" y="740" font-family="JetBrains Mono" font-size="38" fill="#B8D4EE">25 EV's × 3.000 kWh × ±€0,10</text>
<text x="140" y="856" font-family="Outfit" font-weight="700" font-size="84" fill="#FFFFFF">≈ €7.500<tspan font-size="46" fill="#7DD3FC"> /jaar</tspan></text>
<text x="80" y="990" font-family="Inter" font-size="26" fill="#7DD3FC">indicatief · automatisch geregistreerd · wij regelen alles bij de NEa</text>
<rect y="1184" width="1200" height="16" fill="url(#bar)"/>
<text x="80" y="1148" font-family="Outfit" font-weight="600" font-size="26" fill="#FFFFFF">Gratis scan · 2 minuten</text>
<text x="1120" y="1148" text-anchor="end" font-family="Inter" font-size="24" fill="#7DD3FC">chargecontrol.ai</text>
</svg>