<svg xmlns="http://www.w3.org/2000/svg" viewBox="0 0 200 200" width="200" height="200">
  <defs>
    <radialGradient id="f4ct" cx="50%" cy="50%" r="36%">
      <stop offset="0%" stop-color="#0EA5E9" stop-opacity="0.55"/>
      <stop offset="100%" stop-color="#0EA5E9" stop-opacity="0"/>
    </radialGradient>
    <filter id="f4bt"><feGaussianBlur stdDeviation="2.5"/></filter>
    <filter id="f4dt"><feGaussianBlur stdDeviation="4"/></filter>
  </defs>
  <circle cx="100" cy="100" r="46" fill="url(#f4ct)" opacity="0.16"/>
  <circle cx="100" cy="100" r="22" fill="none" stroke="#0EA5E9" stroke-width="0.5" opacity="0.18"/>
  <g fill="#0EA5E9" opacity="0.5">
    <circle cx="100" cy="78" r="2.5"/>
    <circle cx="119" cy="89" r="2.5"/>
    <circle cx="119" cy="111" r="2.5"/>
    <circle cx="100" cy="122" r="2.5"/>
    <circle cx="81" cy="111" r="2.5"/>
    <circle cx="81" cy="89" r="2.5"/>
  </g>
  <g stroke="#0EA5E9" stroke-width="0.4" opacity="0.14">
    <line x1="100" y1="78" x2="119" y2="111"/>
    <line x1="119" y1="89" x2="81" y2="111"/>
    <line x1="119" y1="111" x2="81" y2="89"/>
    <line x1="100" y1="122" x2="100" y2="78"/>
  </g>
  <g stroke="#0EA5E9" stroke-width="1.2" fill="none" opacity="0.68">
    <line x1="100" y1="78" x2="100" y2="32"/>
    <line x1="119" y1="89" x2="162" y2="52"/>
    <line x1="119" y1="111" x2="165" y2="135"/>
    <line x1="100" y1="122" x2="100" y2="168"/>
    <line x1="81" y1="111" x2="38" y2="140"/>
    <line x1="81" y1="89" x2="38" y2="55"/>
  </g>
  <g filter="url(#f4bt)" stroke="#0EA5E9" stroke-width="2" fill="none" opacity="0.2">
    <line x1="100" y1="78" x2="100" y2="32"/>
    <line x1="119" y1="89" x2="162" y2="52"/>
    <line x1="119" y1="111" x2="165" y2="135"/>
    <line x1="100" y1="122" x2="100" y2="168"/>
    <line x1="81" y1="111" x2="38" y2="140"/>
    <line x1="81" y1="89" x2="38" y2="55"/>
  </g>
  <g fill="#0EA5E9">
    <circle cx="100" cy="32" r="4.5"/>
    <circle cx="162" cy="52" r="4.5"/>
    <circle cx="165" cy="135" r="4.5"/>
    <circle cx="100" cy="168" r="4.5"/>
    <circle cx="38" cy="140" r="4.5"/>
    <circle cx="38" cy="55" r="4.5"/>
  </g>
  <g filter="url(#f4dt)" fill="#0EA5E9" opacity="0.38">
    <circle cx="100" cy="32" r="7"/>
    <circle cx="162" cy="52" r="7"/>
    <circle cx="165" cy="135" r="7"/>
    <circle cx="100" cy="168" r="7"/>
    <circle cx="38" cy="140" r="7"/>
    <circle cx="38" cy="55" r="7"/>
  </g>
  <g transform="translate(100,100)">
    <circle cx="0" cy="0" r="12" fill="#0EA5E9" opacity="0.12"/>
    <circle cx="0" cy="0" r="12" fill="none" stroke="#0EA5E9" stroke-width="1" opacity="0.4"/>
    <path d="M0,-7 L-8,0 L-5.5,0 L-5.5,5.5 L5.5,5.5 L5.5,0 L8,0 Z" fill="#ffffff" opacity="0.92"/>
    <rect x="-1.2" y="1" width="2.4" height="4.5" fill="#0B2347" rx="0.3"/>
  </g>
</svg>