<svg xmlns="http://www.w3.org/2000/svg" viewBox="0 0 200 200" width="200" height="200">
  <defs>
    <radialGradient id="f4ct" cx="50%" cy="50%" r="36%">
      <stop offset="0%" stop-color="#0EA5E9" stop-opacity="0.55"/>
      <stop offset="100%" stop-color="#0EA5E9" stop-opacity="0"/>
    </radialGradient>
    <filter id="f4bt"><feGaussianBlur stdDeviation="2.5"/></filter>
    <filter id="f4dt"><feGaussianBlur stdDeviation="4"/></filter>
  </defs>
  <circle cx="100" cy="100" r="46" fill="url(#f4ct)" opacity="0.18"/>
  <g stroke="#0EA5E9" stroke-width="2.5" stroke-linecap="round" fill="none" opacity="0.72">
    <line x1="100" y1="64" x2="100" y2="40"/>
    <line x1="128.5" y1="78" x2="154.9" y2="57.5"/>
    <line x1="131.7" y1="117.1" x2="157.1" y2="130.7"/>
    <line x1="100" y1="136" x2="100" y2="160"/>
    <line x1="69.7" y1="119.5" x2="45.5" y2="135.1"/>
    <line x1="70.9" y1="78.9" x2="45.3" y2="60.3"/>
  </g>
  <g filter="url(#f4bt)" stroke="#0EA5E9" stroke-width="3.5" stroke-linecap="round" fill="none" opacity="0.22">
    <line x1="100" y1="64" x2="100" y2="40"/>
    <line x1="128.5" y1="78" x2="154.9" y2="57.5"/>
    <line x1="131.7" y1="117.1" x2="157.1" y2="130.7"/>
    <line x1="100" y1="136" x2="100" y2="160"/>
    <line x1="69.7" y1="119.5" x2="45.5" y2="135.1"/>
    <line x1="70.9" y1="78.9" x2="45.3" y2="60.3"/>
  </g>
  <g fill="#0EA5E9">
    <circle cx="100" cy="32" r="4.5"/>
    <circle cx="162" cy="52" r="4.5"/>
    <circle cx="165" cy="135" r="4.5"/>
    <circle cx="100" cy="168" r="4.5"/>
    <circle cx="38" cy="140" r="4.5"/>
    <circle cx="38" cy="55" r="4.5"/>
  </g>
  <g filter="url(#f4dt)" fill="#0EA5E9" opacity="0.38">
    <circle cx="100" cy="32" r="7"/>
    <circle cx="162" cy="52" r="7"/>
    <circle cx="165" cy="135" r="7"/>
    <circle cx="100" cy="168" r="7"/>
    <circle cx="38" cy="140" r="7"/>
    <circle cx="38" cy="55" r="7"/>
  </g>
  <g>
    <circle cx="100" cy="100" r="30" fill="#FFFFFF"/>
    <circle cx="100" cy="100" r="30" fill="#0EA5E9" opacity="0.07"/>
    <circle cx="100" cy="100" r="30" fill="none" stroke="#0EA5E9" stroke-width="1.5" opacity="0.45"/>
    <g transform="translate(100,100) scale(3.8) translate(-12,-12.2)">
      <path d="M12 7.8 8.6 10.8v4.9a.9.9 0 0 0 .9.9h5a.9.9 0 0 0 .9-.9v-4.9z" fill="none" stroke="#0B2347" stroke-width="2" stroke-linecap="round" stroke-linejoin="round"/>
      <path d="M12.37 10.17 L10.64 12.77 h1.24 l-0.37 1.86 L13.36 12.03 h-1.24 z" fill="#0EA5E9" stroke="#0EA5E9" stroke-width="1" stroke-linecap="round" stroke-linejoin="round"/>
    </g>
  </g>
</svg>
